<?xml version="1.0" standalone="no"?>
<!DOCTYPE svg PUBLIC "-//W3C//DTD SVG 20010904//EN"
 "http://www.w3.org/TR/2001/REC-SVG-20010904/DTD/svg10.dtd">
<svg version="1.0" xmlns="http://www.w3.org/2000/svg"
 width="500px" height="300px" viewBox="0 0 1200.000000 800.000000"
 preserveAspectRatio="xMidYMid meet">
<metadata>
Created by potrace 1.16, written by Peter Selinger 2001-2019
</metadata>
<g transform="translate(0.000000,800.000000) scale(0.100000,-0.100000)"
fill="#000000" stroke="none">
<path d="M7083 7605 c6 -160 5 -180 -10 -197 -16 -18 -15 -21 20 -56 l37 -37
38 38 37 38 -43 40 -43 41 8 117 8 118 135 -62 135 -62 3 -114 c3 -107 2 -115
-19 -132 l-23 -18 37 -36 36 -36 35 27 c20 15 36 33 36 40 0 7 -13 25 -30 41
-30 29 -30 29 -30 145 l0 115 -172 79 c-95 43 -179 81 -187 84 -12 5 -13 -21
-8 -173z"/>
<path d="M6440 7273 c0 -98 -4 -185 -9 -193 -7 -10 -1 -20 27 -37 20 -12 43
-23 49 -23 14 0 56 76 49 89 -3 4 -23 16 -46 26 l-40 18 0 149 c0 125 -2 148
-15 148 -13 0 -15 -26 -15 -177z"/>
<path d="M1755 6940 c-88 -182 -161 -335 -163 -340 -2 -6 15 -10 38 -10 l41 0
165 336 c90 185 164 338 164 340 0 2 -19 4 -42 4 l-43 -1 -160 -329z"/>
<path d="M10277 7115 c-22 -46 -97 -347 -97 -387 0 -5 -4 -8 -9 -8 -4 0 -11
42 -15 93 -4 50 -14 117 -23 147 -15 51 -16 53 -25 30 -6 -15 -7 -77 -4 -147
l6 -123 -65 0 -65 0 2 -242 3 -243 155 0 155 0 0 240 0 240 -28 3 c-21 3 -27
8 -23 20 30 109 66 322 64 374 l-3 63 -28 -60z"/>
<path d="M10600 6700 l0 -460 45 0 45 0 0 420 0 420 420 0 420 0 0 -420 0
-420 40 0 40 0 0 460 0 460 -505 0 -505 0 0 -460z"/>
<path d="M1358 6987 l-158 -71 0 -41 0 -41 148 -68 c81 -38 153 -71 160 -73
10 -4 13 5 10 37 l-3 43 -108 46 c-60 26 -109 51 -109 56 0 5 47 29 103 52 57
24 107 47 112 52 5 5 7 25 5 44 l-3 36 -157 -72z"/>
<path d="M2070 7017 l0 -43 115 -48 c64 -27 113 -52 110 -55 -4 -3 -54 -27
-113 -52 l-107 -46 -3 -41 c-4 -49 -22 -53 176 38 l141 65 0 40 0 40 -141 65
c-197 91 -178 87 -178 37z"/>
<path d="M8010 6738 c-36 -11 -68 -23 -73 -27 -10 -10 34 -151 48 -151 10 0
136 40 143 45 4 3 -39 139 -46 147 -4 3 -36 -3 -72 -14z"/>
<path d="M3710 6600 c0 -20 7 -20 1155 -20 1276 0 1194 4 1235 -63 19 -31 20
-57 20 -945 0 -1000 3 -952 -58 -997 -26 -19 -45 -20 -575 -23 l-548 -2 3 515
3 515 -312 0 c-288 0 -312 -1 -317 -17 -10 -36 -246 -1000 -246 -1006 0 -4
-185 -7 -410 -7 -444 0 -438 -1 -490 55 l-25 27 -3 916 c-1 504 0 927 3 938 2
12 18 36 34 53 l29 31 -28 0 c-21 0 -35 -9 -52 -32 l-23 -33 -3 -920 c-1 -629
1 -930 9 -952 14 -43 44 -80 82 -100 29 -16 70 -17 445 -14 403 3 412 3 412
-16 0 -11 -20 -102 -45 -202 -25 -100 -45 -192 -45 -204 0 -13 9 -39 19 -60
l19 -37 -284 0 -284 0 0 -1845 0 -1845 91 0 92 0 -6 1632 c-3 898 -3 1704 0
1791 l6 157 364 0 363 0 0 -1790 0 -1790 89 0 90 0 -2 1788 -2 1787 2135 0
2135 0 0 -1463 0 -1462 88 0 87 0 0 650 0 650 165 0 165 0 0 35 0 35 -165 0
-165 0 0 625 0 625 165 0 165 0 0 35 0 35 -165 0 -165 0 0 120 0 120 198 -2
197 -3 3 -32 3 -33 167 -2 c119 -2 138 -3 65 -5 l-102 -4 -3 -77 -3 -77 -82
-3 -83 -3 0 -34 0 -35 190 0 190 0 0 -52 c0 -29 -3 -63 -6 -75 -6 -20 -8 -21
-44 -8 l-39 14 -75 -227 c-42 -125 -76 -230 -76 -233 0 -9 81 -31 88 -24 4 4
37 95 73 203 l66 197 7 -405 c4 -223 6 -457 4 -520 l-3 -115 -187 -3 -188 -2
0 -35 0 -35 190 0 190 0 0 -107 0 -107 -37 36 c-49 46 -94 61 -144 48 -85 -23
-132 -93 -144 -215 -4 -38 -11 -75 -16 -82 -7 -7 -6 -14 1 -18 18 -11 11 -25
-15 -25 -18 0 -25 -5 -25 -20 0 -19 7 -20 185 -20 l185 0 0 -160 0 -160 90 0
90 0 0 410 0 410 200 0 200 0 0 -250 0 -250 40 0 40 0 0 250 0 250 660 0 660
0 0 45 0 45 -660 0 -660 0 0 620 0 620 660 0 660 0 0 38 0 39 -152 -1 c-84 -1
-381 0 -660 2 l-508 2 0 80 0 80 -60 0 -60 0 0 80 c0 73 2 80 20 80 18 0 20 7
20 85 l0 85 -350 0 -350 0 0 -75 0 -75 -800 0 c-687 0 -800 2 -800 14 0 15
-17 18 -175 31 -86 8 -144 34 -188 86 -38 44 -57 97 -57 160 0 44 -1 43 -71
-89 -39 -74 -67 -137 -63 -141 5 -4 38 -16 74 -26 36 -10 72 -22 80 -26 8 -5
-492 -9 -1112 -9 l-1127 0 -3 43 -3 42 -327 5 -326 5 -26 24 c-14 13 -27 35
-30 50 -6 25 65 325 79 339 4 4 343 9 753 10 736 4 748 4 784 25 24 13 45 36
58 62 20 41 20 57 18 973 -3 922 -3 931 -24 958 -29 40 -65 64 -110 74 -22 6
-560 10 -1251 10 -1206 0 -1213 0 -1213 -20z m1195 -1062 c-15 -40 -325 -1324
-325 -1344 0 -42 28 -93 62 -114 31 -19 50 -20 346 -20 l312 0 0 -30 0 -30
-619 0 c-608 0 -619 0 -644 20 -57 45 -57 41 89 638 74 301 153 625 176 720
l42 172 283 0 c222 0 281 -3 278 -12z m5365 -2578 l0 -620 -200 0 -200 0 0
315 0 315 30 0 30 0 0 245 0 245 -30 0 -30 0 0 60 0 60 200 0 200 0 0 -620z
m-653 -914 c36 -32 38 -37 41 -108 3 -64 1 -75 -17 -92 -20 -18 -20 -20 -5
-38 17 -17 13 -18 -86 -18 -99 0 -102 1 -87 18 16 17 15 20 -9 43 -24 22 -25
28 -19 79 9 70 28 106 68 130 46 28 72 25 114 -14z"/>
<path d="M9960 3215 l0 -245 55 0 55 0 0 245 0 245 -55 0 -55 0 0 -245z"/>
<path d="M10090 3215 l0 -245 55 0 55 0 0 245 0 245 -55 0 -55 0 0 -245z"/>
<path d="M7124 6322 c-119 -41 -219 -124 -265 -220 -23 -46 -52 -153 -44 -160
8 -9 58 30 115 91 l58 61 29 -35 c41 -50 78 -84 178 -164 167 -134 164 -127
176 -455 5 -135 14 -282 19 -327 28 -216 131 -385 285 -466 48 -26 152 -29
205 -7 19 8 85 44 145 80 136 82 202 110 272 117 29 3 56 10 59 14 2 5 -23 41
-57 81 -73 87 -146 233 -184 367 -54 194 -80 225 -323 399 -69 50 -66 45 -98
171 -58 232 -185 392 -358 451 -72 24 -144 25 -212 2z"/>
<path d="M10835 6280 l39 -40 236 0 236 0 39 40 39 40 -314 0 -314 0 39 -40z"/>
<path d="M10270 5990 c0 -150 -2 -170 -16 -170 -11 0 -15 -6 -11 -20 3 -11 1
-35 -3 -53 -5 -17 -14 -101 -20 -186 -15 -206 -29 -282 -100 -527 -42 -147
-60 -226 -60 -266 l0 -58 -370 0 -370 0 0 -35 0 -35 1175 0 1175 0 0 40 0 40
-276 0 -276 0 6 33 c3 17 19 124 36 237 16 113 32 215 35 228 l5 22 -156 0
-157 0 7 78 c10 105 14 120 39 124 29 4 34 28 7 35 -21 6 -22 10 -15 67 8 70
10 76 34 76 26 0 44 23 29 38 -7 7 -18 12 -26 12 -8 0 -12 6 -9 14 3 8 9 30
12 48 6 31 9 34 35 30 39 -6 49 16 18 43 -20 17 -23 25 -15 48 7 23 14 27 47
27 52 0 58 15 21 49 -21 20 -28 34 -24 50 3 13 1 21 -7 21 -6 0 -14 -9 -17
-21 -5 -17 -11 -20 -34 -15 -61 12 -78 -19 -30 -55 26 -19 28 -24 19 -50 -7
-21 -17 -29 -33 -29 -34 0 -42 -20 -17 -41 20 -16 21 -20 9 -68 -10 -42 -16
-51 -33 -51 -12 0 -27 -7 -34 -15 -10 -12 -7 -17 15 -27 24 -11 26 -16 20 -47
-13 -80 -17 -89 -36 -94 -23 -6 -25 -32 -4 -41 16 -6 20 -75 9 -160 l-7 -46
-143 0 c-109 0 -144 -3 -144 -12 1 -7 18 -124 38 -260 l38 -248 -153 0 -153 0
0 720 0 720 -40 0 -40 0 0 -170z m-34 -718 c-22 -188 -99 -552 -117 -552 -13
0 -13 1 35 227 46 214 85 428 87 479 1 24 3 25 6 6 2 -12 -3 -84 -11 -160z
m34 -262 l0 -290 -59 0 -58 0 29 118 c31 127 78 386 78 433 0 16 2 29 5 29 3
0 5 -130 5 -290z"/>
<path d="M6828 5797 c-22 -17 -62 -108 -88 -200 -24 -89 -26 -189 -4 -289 20
-91 23 -291 5 -373 -7 -33 -29 -102 -48 -153 -19 -52 -33 -95 -31 -97 7 -6
311 214 356 257 53 52 114 92 155 102 l27 6 0 95 0 94 38 6 c58 10 72 15 72
27 0 7 -15 9 -42 5 -24 -3 -73 -9 -110 -13 -141 -14 -267 64 -308 190 -11 34
-32 275 -24 284 1 2 11 -1 22 -7 23 -12 62 11 62 38 0 38 -47 54 -82 28z"/>
<path d="M9770 5140 l0 -420 90 0 90 0 0 420 0 420 -90 0 -90 0 0 -420z"/>
<path d="M9451 5098 c-63 -178 -116 -328 -118 -333 -2 -6 16 -17 40 -26 l43
-15 114 320 c62 177 115 326 117 332 3 9 -62 44 -80 44 -1 0 -54 -145 -116
-322z"/>
<path d="M9661 5383 c-6 -21 -44 -174 -84 -340 l-74 -301 41 -11 c22 -5 42 -8
45 -6 9 10 168 670 162 677 -3 3 -23 9 -43 13 -36 7 -37 6 -47 -32z"/>
<path d="M9070 4698 c0 -7 3 -23 6 -35 6 -22 11 -23 110 -23 l104 0 0 35 0 35
-110 0 c-81 0 -110 -3 -110 -12z"/>
<path d="M11414 4202 c16 -31 11 -44 -19 -57 -18 -7 -18 -9 -2 -12 11 -3 17
-14 17 -34 0 -23 -4 -29 -22 -30 l-23 0 23 -9 c14 -6 22 -18 22 -33 0 -20 -4
-23 -25 -19 -14 2 -25 0 -25 -5 0 -5 11 -15 25 -21 21 -10 25 -19 25 -52 l0
-40 65 0 65 0 0 30 c0 22 5 30 18 30 16 1 16 1 0 11 -13 7 -18 23 -18 54 0 37
3 44 23 48 l22 4 -22 8 c-29 9 -29 29 -1 49 l22 16 -21 0 c-27 0 -35 21 -14
37 11 9 12 12 3 13 -7 0 -26 10 -43 22 -26 19 -33 21 -51 9 -14 -9 -23 -10
-31 -2 -21 21 -28 11 -13 -17z"/>
<path d="M6510 3572 c0 -4 18 -26 40 -47 22 -21 40 -42 40 -45 0 -3 -26 -10
-58 -16 -180 -35 -337 -191 -372 -371 -7 -34 -10 -71 -7 -82 2 -11 -35 -203
-83 -428 -48 -224 -87 -409 -85 -411 2 -3 212 259 227 283 4 6 -4 128 -16 270
-29 319 -24 378 40 496 76 139 283 252 402 219 22 -5 116 -59 208 -118 93 -59
207 -132 254 -162 47 -30 202 -137 345 -238 l260 -183 70 7 c39 4 90 13 115
21 45 15 150 73 150 83 0 3 -184 63 -408 134 l-407 129 -248 159 c-136 87
-271 170 -300 183 -36 15 -68 40 -96 74 -38 45 -71 65 -71 43z"/>
<path d="M10520 2575 l0 -85 503 2 c276 1 472 3 435 5 l-68 4 0 79 0 80 -435
0 -435 0 0 -85z"/>
<path d="M9180 2555 c0 -43 23 -101 52 -132 l21 -23 -53 0 -54 0 29 -30 c23
-24 37 -30 72 -30 l43 0 0 125 0 125 -55 0 -55 0 0 -35z"/>
<path d="M9320 2465 l0 -125 138 0 138 0 29 30 29 30 -54 0 -53 0 21 23 c29
31 52 89 52 132 l0 35 -150 0 -150 0 0 -125z"/>
<path d="M4537 2142 c-10 -10 -17 -28 -17 -40 0 -14 110 -124 360 -361 389
-368 392 -370 462 -337 19 9 58 40 86 69 l52 53 -240 227 c-131 125 -241 227
-244 227 -3 0 -94 41 -203 90 -108 50 -207 90 -218 90 -12 0 -29 -8 -38 -18z"/>
<path d="M10420 1935 l0 -185 90 0 90 0 1 83 1 82 21 -82 21 -83 57 0 c54 0
57 1 53 23 l-5 22 12 -22 c10 -20 20 -23 66 -23 29 0 53 3 53 8 0 13 -71 207
-79 215 -4 4 -27 1 -50 -8 -41 -14 -43 -14 -48 6 -3 11 -11 18 -19 15 -7 -3
-29 -8 -48 -12 l-36 -6 0 76 0 76 -90 0 -90 0 0 -185z"/>
<path d="M8787 833 c-4 -3 -7 -123 -7 -265 l0 -258 90 0 90 0 0 265 0 265 -83
0 c-46 0 -87 -3 -90 -7z"/>
<path d="M6369 532 c-35 -26 -88 -63 -116 -82 -49 -31 -53 -36 -53 -71 0 -28
5 -41 19 -49 13 -6 154 -10 390 -10 l371 0 37 34 37 33 0 97 1 96 -311 0 -311
0 -64 -48z"/>
<path d="M9690 355 l0 -45 90 0 90 0 0 45 0 45 -90 0 -90 0 0 -45z"/>
</g>
</svg>
