<svg xmlns="http://www.w3.org/2000/svg" viewBox="0 0 557.72 345.98"><defs><style>.cls-1{fill:#ffcf24;}.cls-2{fill:#f7d4fc;}.cls-3{fill:#343330;}.cls-4{fill:#fdd204;}.cls-5{fill:#4255f9;}.cls-6{fill:#4f3055;}.cls-7{fill:#809dbf;}.cls-8{fill:#5e83ad;}.cls-9{fill:#266ccf;}.cls-10{fill:#fec460;}.cls-11{fill:#559dcc;}.cls-12{fill:#e7eedb;}.cls-13{fill:#feac55;}.cls-14{fill:#cbcbc9;}.cls-15{fill:#eeca8d;}.cls-16{fill:#fefefe;}.cls-17{fill:#dcaac1;}</style></defs><title>imgRecurso 1</title><g id="Capa_2" data-name="Capa 2"><g id="Capa_1-2" data-name="Capa 1"><path class="cls-1" d="M515.38,0c3.82,1.06,7.63,2.1,10.94,4.45,5.69,4,9.79,9.1,10.86,16.2H486.37c.46-4.75,3.17-8.39,6.09-11.84a24,24,0,0,1,15-8.44,2.41,2.41,0,0,0,.71-.37Z"/><path class="cls-1" d="M291,11.4a11,11,0,0,1,8.62-11,5,5,0,0,0,.92-.41h4.63c2,1,4.21,1.7,5.78,3.49a10.52,10.52,0,0,1,3.05,7.9C306.33,11.17,298.67,11.09,291,11.4Z"/><path class="cls-2" d="M243.37,78.83c-4.15,0-8.29,0-12.43-.08a2.09,2.09,0,0,0-2.07,1.36c-3.4,6-8.54,9.14-15.42,9.18-13,.06-26,.16-39,0-8.13-.13-16.41-7.68-16.34-16.37,0-3.08.15-6.18,0-9.26-.47-8,5.14-14.34,12.08-16.88a14,14,0,0,1,4.93-.84c13.06,0,26.11-.12,39.17.07C223.71,46.1,231,54.5,231,62.7c0,3,.09,6,0,9-.06,1.62.51,2,2.05,2,9.06-.06,18.11,0,27.17,0,3.76,0,3.17-.39,3.25,3.26-.12.39-.24.79-.35,1.19-.57.92-1.5.57-2.28.58-5.22,0-10.43,0-15.65.06Zm-56-1c1.17-.24,2.5.87,3.26-.74,1.23-2.57,2.63-5,4-7.53,2.47-4.31,4.49-8.88,6.66-13.36.28-.58,1.06-1.36.41-1.86-.5-.38-1.48-.21-2.24-.16s-.73.77-1,1.25a81.86,81.86,0,0,1-4.15,8.27C191.48,68.12,189.66,73,187.33,77.83Zm17.36-3.38c3.63-1.62,7.27-3.2,10.87-4.87,1.08-.5,1-2.79-.14-3.29-3.55-1.6-7.13-3.15-10.7-4.73-.71,2-.22,3.19,1.84,3.86s3.82,1.67,6.05,2.67c-2.26,1-4.07,1.92-6,2.53S204,72.39,204.69,74.45Zm-20.22,0c.41-2.88.41-2.87-2-3.88-1.9-.81-3.79-1.66-6-2.63l6.07-2.61c2.43-1,2.43-1,1.76-3.78-3.32,1.52-6.65,3-9.92,4.55a2.06,2.06,0,0,0,0,3.66C177.68,71.44,181.06,72.93,184.47,74.5Z"/><path class="cls-3" d="M263.12,78.18c.11-.4.23-.8.35-1.19l28.44-.08a57.17,57.17,0,0,0,8.38,0H301c10.67.23,21.35.19,32,0H334l16.17.19c3.86.06,6.06,2.27,6.13,6.16.05,3,.09,6,.14,9,0,.28,0,.56,0,.84,0,6-.12,11.89-.12,17.84,0,4.12.1,8.25.15,12.37,0,.31,0,.61,0,.92,0,6.51-.15,13-.11,19.54a7.72,7.72,0,0,1-2,5.77,9.48,9.48,0,0,1-5,1.18c-2.21,0-4.42.09-6.64.14a24.09,24.09,0,0,0-5.5,0H321.69c-6.89-.21-13.78-.14-20.66,0h-.78c-1.5-.41-2.38.07-2.53,1.7-.05.62-.2,1.23-.31,1.84l-.2.9a25.54,25.54,0,0,0-1.37,5c-.84,3.72.54,5.35,4.4,5.24H301c6.23,0,12.45.08,18.68.07,1.24,0,2.1.24,1.92,1.72-.12,1,.35,1.35,1.33,1.33,3.36-.07,6.71-.09,10.07-.13l.8,0,.18.07.18-.06a115.07,115.07,0,0,0,11.6,0,90.27,90.27,0,0,0,9.45,0,9.2,9.2,0,0,0,1,.12h42.8c.39,0,.78-.07,1.48-.14-1.6-1.34-3.61-.91-4.93-2.08,1.77-3,2.93-6.29,5.17-9-.29,5,1.35,7.69,5.81,9.18,2.61.87,5.39.71,8.1.94l1.39.39c-.05.81.58.66,1,.66l30-.08a9.27,9.27,0,0,0,3.56,0c4.15.24,8.31.2,12.46,0h.8a76.27,76.27,0,0,0,9.32,0l8.75.06c.72,0,1.59-.26,1.91.78,0,2.08-.07,4.18-.11,6.27-.05,1.55-.09,3.1-.14,4.64l-5.88.06-.27-.05-.09-4.64c-.29-1,1.05-2.83-1.19-2.85a99.07,99.07,0,0,0-10.9.13,1.93,1.93,0,0,0-1.38,0h-.82c-3.47,0-7,0-10.42-.13-1.17,0-1.39.49-1.37,1.5,0,2-.05,4-.08,6.05H445l-.3-2.13a.13.13,0,0,0,.06-.22,2.42,2.42,0,0,0,0-1.85v-1.71c.23-1.12-.06-1.65-1.37-1.63-6.35.07-12.71.05-19.07.06l-9.2.06c-.84,0-1.68-.09-2.51-.09H354.89c-.83,0-1.67.06-2.51.09H333q-16-.24-32,0h-.76c-2.22,0-4.45,0-6.67-.13-1.35-.07-1.63.52-1.6,1.72.05,1.94-.06,3.88-.11,5.82h-6c0-2-.12-4-.09-6.07,0-1.06-.28-1.48-1.41-1.47-5.52.09-11,.1-16.56.14h-1c-1.88,0-3.76,0-5.63-.14-1.35-.09-1.63.51-1.61,1.72,0,1.94-.08,3.88-.13,5.83h-6.38c0-3.07.08-6.14-.12-9.2-.14-2.13.69-2.52,2.62-2.48a96.66,96.66,0,0,0,11.29-.12l.82,0a18,18,0,0,0,5.55-.14c-1.51-1.92-1.22-3.83-.72-5.79.6-2.37,1.12-4.77,1.68-7.15.06-.35.12-.71.17-1.06.27-.85.56-1.7.79-2.57.17-.62.06-1.14-.75-1.09-2.4.15-4.83-.39-7.21.32a1.09,1.09,0,0,1-.36.12c-.22-.48-.66-.44-1.07-.44q-7.11,0-14.2.06c-1.11-.06-2.22-.15-3.34-.17-4.25-.07-6.6-2.36-6.63-6.67,0-6.51,0-13,0-19.53q0-20.07,0-40.13a7.86,7.86,0,0,1,1.71-5.47h1.82a6.33,6.33,0,0,0-2.33,4.73q0,30.33,0,60.65c0,3.1,1.84,5.18,4.88,5.21,9,.1,18,0,27,.05.68,0,1.2-.08,1.37-.92.7-3.48,1.92-6.82,2.85-10.23,2.13-7.85,4-15.77,5.9-23.68.24-1,.6-1.38,1.65-1.37q10,.06,20,0c.91,0,1.16.24,1.16,1.19-.08,11-.07,22-.17,33.06,0,1.57.39,2,2,2,11.37-.08,22.74,0,34.12,0,4.33,0,6.1-1.79,6.1-6.15q0-29.39,0-58.76c0-4.66-1.52-6.19-6.16-6.19H265.62C264.79,78.35,264,78.24,263.12,78.18Zm34.65,90.7c6.8,0,13.6,0,20.41,0,.77,0,1.78.33,1.75-1.09s-1-.89-1.68-.89c-6.17,0-12.34,0-18.52,0-4,0-6.21-2.79-5.19-6.66,1.8-6.8,3.24-13.67,5.31-20.41,2.38-7.76,3.91-15.77,5.92-23.65.39-1.51-.09-1.6-1.33-1.59-5.61,0-11.22.06-16.83,0-1.21,0-1.65.35-2,1.55-2.77,10.82-4.95,21.78-8.28,32.47-1.5,4.8-2.48,9.77-3.66,14.68-.89,3.72.64,5.64,4.49,5.65Z"/><path class="cls-2" d="M483.68,259c6.66,0,13.32-.13,20,.08,8.08.26,14.23,6,14.22,14.21,0,3.62.44,7.27-.42,10.87a14.45,14.45,0,0,1-11.91,10.33c-7.28.69-14.55.09-21.82.38a35.72,35.72,0,0,0-6,.06c-2.49-.29-5-.07-7.52-.43-5.9-.82-9.58-4.12-11.64-9.51a7.58,7.58,0,0,1-.77-3c.16-2.12-.87-2.46-2.62-2.31-1.25.1-2.52,0-3.78,0H432c-1.4,0-2.65.28-2.69-2s1-2.37,2.65-2.25h19.29c1.61,0,3.22,0,4.82,0,1.18.05,1.65-.4,1.57-1.58a13.09,13.09,0,0,1,1.38-6.26,3.76,3.76,0,0,0,.67-2.36l0,.05.48-.48,3-2.85.83-.92.35.05c.38,0,.73-.08.79-.55h-.07c4.1-1.75,8.42-1.67,12.74-1.55Zm11.47,18.22v-3.36c0-2.4,0-2.45-2.4-1.54-.55.21-.75-.11-1.09-.26a5.61,5.61,0,0,0-6.54,1.13,6.11,6.11,0,0,0-.65,6.86,5.38,5.38,0,0,0,5.94,2.52c1.12-.22,2.1-1,3.4-.2.7.44,1.42-.07,1.36-1.17C495.09,279.91,495.15,278.58,495.15,277.25ZM471.31,272c1.27,3.21,2.55,6.37,3.77,9.55.37,1,1.07.91,1.86.93a1.55,1.55,0,0,0,1.76-1.09c1.05-2.74,2.21-5.43,3.27-8.17.17-.41.86-1.09,0-1.37-.64-.21-1.56-.46-2,.47-.25.5-.44,1-.68,1.53-.82,1.79-1.09,3.83-2.48,5.63-.82-2.11-1.66-4-2.25-5.88C474,271.92,473.13,271.32,471.31,272Zm27.5,5.07c0,1.4,0,2.8,0,4.2,0,.93.4,1.21,1.27,1.2s1.06-.42,1.05-1.18c0-1.54-.07-3.08,0-4.61.11-2.06,1-3,3.05-2.83,1.07.07,1.54-.14,1.64-1.23.14-1.37-.95-1.06-1.55-1.06-1.52,0-3,.94-4.59.25-.68-.29-.86.46-.87,1.07Z"/><path class="cls-4" d="M397.16,45.5a123.23,123.23,0,0,1,27,6.89,124.62,124.62,0,0,1,14.16,6.32,3.87,3.87,0,0,1,2,1.46c-4.66-.15-9.33-.36-13.34,2.7-.83,0-1.67-.11-2.51-.11H379.85c-5.18,0-10.37,0-15.55-.08,1.33-2.91,1.38-3-.94-4-1.28-.54-1.36-1.33-1.34-2.43.05-2.24,0-4.47,0-6.71,0-.56.33-1.48-.6-1.51-1.17,0-.68,1-.69,1.59-.05,3.28.19,6.59-.12,9.84-.15,1.68.14,2.6,1.62,3.21l-11.55.15c-5.51-2.43-11-3.31-16.52,0H311.78l-.1-.58a129.33,129.33,0,0,1,56.16-17.72c1.72.44.89,2.63,2.33,3.42.22-1.34-.61-2.43-.54-3.63a103.11,103.11,0,0,1,14.6-.1c0,1.46.64,3.4-.06,4.27-1.36,1.69,0,2.12.65,3,1.12,1.53,1.79.3,2.64-.32,1-.76,1.17-1.43.12-2.28-1.45-1.19-2.37-2.64-1.85-4.63a97.25,97.25,0,0,1,9.93.95,22.27,22.27,0,0,1,.06,2.31c-.12,1.29.42,2.65-.41,3.86s.1,3.35,1.33,3.44c1.07.07,1.55-1,2.28-1.64.43-.35.58-.84,0-1.23C396.59,50.29,397,47.88,397.16,45.5Z"/><path class="cls-1" d="M486.37,20.65h50.81c1.6,9.69-1.63,17.28-9,23.89-8.09,7.26-22.45,8.11-31.68,1.07a32.44,32.44,0,0,1-6.42-6.86c-3.38-4.65-4.45-9.85-4.19-15.43A22.24,22.24,0,0,1,486.37,20.65Z"/><path class="cls-2" d="M426.94,62.87c4-3.06,8.68-2.85,13.34-2.7,5.68,0,11.37.33,17,0,6.06-.37,12.88,5.68,12.2,12.12-.3,2.82.24,5.72-.9,8.46a30.4,30.4,0,0,1-4.7,5.18.79.79,0,0,0-.77.41c-3.24,1.54-6.69,1.23-10.11,1.23-4.8,0-4.8,0-4.22,4.71l0,.89A97.23,97.23,0,0,0,450,107.71c.19,2.71,0,5.41.38,8.13.22,1.67.74,3.6-.53,5.21-.94-.21-2.44.7-2.47-1.26-.06-3.48-.84-6.89-1.14-10.35-.46-5.44-.47-10.91-1.25-16.32v-.89c-.05-1.19-.1-2.37-.14-3.56a1,1,0,0,0-1.17-1.11c-3.76.06-7.52.09-11.27.13a.83.83,0,0,0-.78-.51c-3.25-1.42-6.59-3.15-7.55-6.69-1.57-5.8-2.33-11.78,2.33-16.85A.87.87,0,0,0,426.94,62.87Zm24,18.39c1.93-.05,3.31-1.59,3.35-3.83,0-1.29-.09-2.46,1.57-3a.93.93,0,0,0-.06-1.76c-1.64-.58-1.51-1.79-1.5-3.06a3.45,3.45,0,0,0-3-3.72c-.56-.12-1.33-.45-1.53.52-.14.68,0,1.2.9,1.32,1.31.19,1.64,1.13,1.56,2.31-.1,1.35.75,2.29,1.23,3.4.34.79-1.5,1.93-1.25,3.42s-.18,2.36-1.73,2.58c-.77.1-.79.69-.69,1.27S450.44,81.26,450.92,81.26Zm-9.41-.05c.47,0,1.14.26,1.32-.55s-.05-1.22-.89-1.35c-1.2-.19-1.58-1-1.51-2.14a6.26,6.26,0,0,0-1.14-3.45c-.45-.85,1.38-1.92,1.16-3.34s.11-2.53,1.74-2.83c.8-.15.73-.76.63-1.31-.13-.74-.75-.48-1.19-.43a3.52,3.52,0,0,0-3.28,3.71c0,1.28.16,2.47-1.44,3.11a1,1,0,0,0,0,1.8c1.5.59,1.4,1.67,1.41,2.9C438.37,79.54,439.59,81,441.51,81.21Z"/><path class="cls-5" d="M93.5,143.67a18.26,18.26,0,0,1,18.33-18c9.92.06,18.35,8.32,18,18.1-.34,10.67-7.92,17.82-18,17.85C100.72,161.61,93.81,153.4,93.5,143.67Zm9.75-.12a8.28,8.28,0,0,0,8.58,8.44A8.35,8.35,0,0,0,112,135.3,8.29,8.29,0,0,0,103.25,143.55Z"/><path class="cls-6" d="M253.16,180.29h6.38l.18,5.29,0,.85c-.21,9.69-.17,19.38,0,29.08a3.33,3.33,0,0,0,0,1.85c0,8.81-.1,17.63-.1,26.45,0,11.68.05,23.37.08,35.06v.4c0,5.47-.13,10.94-.05,16.42,0,1.66-.29,2.32-2.14,2.26-4.41-.12-4.42,0-4.42-4.38V198.2c0-1.33-.07-2.67-.11-4a62.47,62.47,0,0,0,0-7.86v-.68C253,183.87,253.1,182.08,253.16,180.29Z"/><path class="cls-6" d="M285.93,180.29h6l.21,5.28,0,.85c-.22,10.06-.2,20.12,0,30.17l0,1q-.08,7.88-.14,15.77c0,.42,0,.85.55,1l0,1.56c-.5.16-.54.59-.54,1q0,5.4.11,10.82v.87q0,6.34-.08,12.68a.63.63,0,0,0,0,.78c-.21,5.6-.22,11.2,0,16.8a1.44,1.44,0,0,0,0,1.31c0,5.25-.13,10.49-.09,15.74,0,1.44-.19,2.1-1.9,2.06-4.18-.09-4.19,0-4.19-4.14q0-18.17,0-36.34c0-.84-.06-1.67-.09-2.51,0-2.14,0-4.27,0-6.41v-63Z"/><path class="cls-7" d="M360,287.19c-.34-2.49-.67-5-1-7.47l-.21-.87a61.77,61.77,0,0,0-1-8l-1-10.1c8.13,0,16.26,0,24.39.05,1.6,0,2.07-.48,2-2-.1-2.8,0-5.6,0-8.41,0-.67-.39-1.66.88-1.74,0,2.58-.17,5.16-.06,7.73.21,4.85-.58,9.65-.57,14.49-.36,4.91-.23,9.83-.2,14.75l-.28,3.85c-.4-1.12-1.37-.79-2.15-.78-6.8.06-13.6.16-20.4.25C360.3,288.31,360.46,287.68,360,287.19Z"/><path class="cls-4" d="M431.51,270.83c-10,0-19.94,0-29.91.05-1.69,0-2.09-.48-2.07-2.12.08-6.59,0-13.19,0-19.79a2.68,2.68,0,0,1,.78-.27c10,0,20,0,30,0,1,0,1.32.47,1.31,1.4Q431.55,260.46,431.51,270.83Z"/><path class="cls-2" d="M382.9,289.42c.09-1.29.19-2.57.28-3.85a19.41,19.41,0,0,1,2.29.05c2.1.27,2.82-.55,2.74-2.69-.16-4-.07-8.07-.08-12.11q0-11.11,0-22.22c0-.3,0-.61,0-.91q0-11.82.07-23.65c0-3.71,0-3.71-3.8-3.64l.06-2.66,43.77,0a5.86,5.86,0,0,0,.84,0,4.79,4.79,0,0,0,3.71-4.5,4.38,4.38,0,0,0-3.43-4.36c-3.34-.75-6.71-.18-10.06-.38l2.5-3c1.21.87,2.58.37,3.86.41,2.82.08,5.62,0,7.7,2.43.82,1,1.21.06,1.42-.6.55-1.65,1-3.34,1.53-5,1.93-6,3.81-11.95,5.85-17.88.78-2.26,1.12-4.72,2.54-6.75l.3,2.13-.15,4.62c-.19.59-.38,1.18-.58,1.76-1.16,3.68-2.38,7.34-3.49,11-.74,2.46-1.84,4.82-2.06,7.43a2.82,2.82,0,0,0-.87,2.56c-1.51,2.79-2,5.94-3.12,8.88l-.28.77c-.82.34-1.23,1.15-1.87,1.7l-1,.65a13,13,0,0,1-4.75.7c-9.05,0-18.1,0-27.15,0l-1,0c-2,0-3.94.12-5.89,0-1.57-.1-2,.37-2,2,.08,8.42,0,16.84,0,25.26l0,1.14q0,11,0,22c0,4.34,0,8.69-.09,13,0,1.37.54,1.88,1.88,1.85,11.38-.25,22.45,1.95,33.51,4.21.83.17,1.28.55,1.22,1.4a1.14,1.14,0,0,1-1.27,1.11c-.56,0-1.12,0-1.68,0H383.12c-.09-.56-.19-1.11-.28-1.66Z"/><path class="cls-8" d="M545.71,181.08a7.38,7.38,0,0,0,1,0c.84-.1,1.47-.1,1.48,1.09s-.5,1.39-1.52,1.39c-5.41,0-10.81,0-16.21,0-9.13,0-18.25,0-27.37,0-1.53,0-2.19.24-2.18,2q.12,19.8,0,39.58c0,1.56.38,2.09,2,2,3-.15,6-.09,9-.11l30.83,0c1.4,0,2.8.13,4.2.1,1.13,0,1.19.64,1.19,1.5s-.18,1.37-1.15,1.31c-.49,0-1,0-1.47,0-14.16,0-28.33,0-42.49,0-1.6,0-2.2.34-2.15,2.06.12,4.49.06,9,0,13.46,0,1,.55,2.33-1.43,2.29s-1.31-1.45-1.33-2.38c-.06-4.49-.07-9,0-13.46,0-1.38-.25-2-1.82-2-4.2.11-8.41.07-12.62.09v-2.9c4.26,0,8.52,0,12.78.06,1.08,0,1.67-.17,1.66-1.47-.08-6-.08-12-.11-18v-2.5c0-6.71,0-13.42.11-20.12,0-1.3-.57-1.49-1.65-1.47-4.26.05-8.53.05-12.79.07,0-1,0-1.91,0-2.87l17.18,0,28.73.1c2.52,0,5,0,7.55,0C540.08,181.36,542.9,180.9,545.71,181.08Z"/><path class="cls-6" d="M483.82,180.77c0,1,0,1.91,0,2.87,0,1.38,0,2.77,0,4.16q0,8.56,0,17.15c0,.91,0,1.82,0,2.73l0,19.4V230q0,14.52-.1,29l-5.84.05c0-3.75-.07-7.49-.11-11.23s.33-7.21-.2-10.81a22.05,22.05,0,0,0,0-7.16,3.75,3.75,0,0,0,0-2.7,174.57,174.57,0,0,0,.12-19.41,4.37,4.37,0,0,0-.1-2.79q0-6.9,0-13.79c-.15-.93.61-1.85,0-2.77a10.45,10.45,0,0,0,0-4.88,9.09,9.09,0,0,0,.31-3.2l5.88-.06C483.73,180.45,483.77,180.61,483.82,180.77Z"/><path class="cls-4" d="M285.77,217.43v30.3l-5.91.08a5.62,5.62,0,0,1-2.58-2,111.4,111.4,0,0,1-9.5-14.09c0-4.13.13-8.26.09-12.4,0-1.46.44-1.93,1.91-1.91C275.11,217.48,280.44,217.43,285.77,217.43Z"/><path class="cls-4" d="M333,76.92c-10.67.17-21.35.21-32,0a1.46,1.46,0,0,0,0-.42c-1.87-7.22,3.46-9.74,8.24-12.6a2.43,2.43,0,0,1,1.2-.26q10.95,0,21.89,0a2.24,2.24,0,0,1,.76.27v1.16C333.05,69,333,73,333,76.92Z"/><path class="cls-8" d="M528.36,143.65c5.39,0,10.79-.07,16.18.12,1.2,0,3.55-1.31,3.57,1.23,0,2.82-2.47,1.31-3.67,1.32-19.82.11-39.65.08-59.47.08-.91,0-1.82.07-2.73.11-6.06-.48-12.12-.13-18.18-.18,0-.9,0-1.79,0-2.68l8.63,0h1.43l6.15,0,2.18,0a3.57,3.57,0,0,0,3.87-.08l1.23,0,0,.17a.51.51,0,0,0,.87,0h1.67c.16.18.31.17.44,0,.5-.11,1.12.11,1.43-.52l.22-.44,0,0a.66.66,0,0,0,.3.07c0,.71.39.89,1,.82.23.42.5.47.82.09a8.39,8.39,0,0,1,1.66,0c1.91.32,2.33-.53,2.29-2.32-.14-5.64-.1-11.29-.12-16.94-.3-4.32.51-8.61.41-12.94-.06-2.15-.73-4.26-.37-6.44q0-6,.11-11.94h2.67c0,16,.08,32,0,48,0,2.09.44,2.83,2.63,2.66,2.93-.22,5.88-.08,8.83-.1Z"/><path class="cls-4" d="M464.06,146.33c6.06,0,12.12-.3,18.18.18q0,8.46,0,16.93c-1.34,0-2.67.08-4,.08-5,0-5,0-5,5a76.27,76.27,0,0,1-9.32,0Q464,157.45,464.06,146.33Z"/><path class="cls-4" d="M463.91,85.92a30.4,30.4,0,0,0,4.7-5.18A83.54,83.54,0,0,1,479,92.19c.17.22.36.42.54.62l.74.84c.48,1.35,2,2.16,1.94,3.8-.06,3-.07,6.08-.1,9.12-5.39,0-10.77-.07-16.16,0-1.55,0-2-.39-2-2C464,98.37,463.93,92.14,463.91,85.92Z"/><path class="cls-9" d="M528.36,143.65h-16c-.7-4.72-1.38-9.43-2.09-14.15-.19-1.27-1.63-2.71-.73-3.67s2.79-.3,4.23-.39c.91-.05,1.83,0,2.74,0,1.24-.22,3.27,1,3.37-1.42s.86-4.76-.68-6.93l1.2-.44h.82c.8.48,2.23.85.1,1.6-.92.33-.52,1.35-.53,2a25,25,0,0,0,.28,3.1c-1,.17-.73.91-.63,1.46.14.75.78.62,1.33.55,2.72,0,5.45,0,8.17,0,1.09,0,1.64.3,1.27,1.44C529.5,132.3,529.43,138.06,528.36,143.65Z"/><path class="cls-1" d="M188.78,126.12c-3.45-6.79.57-14.57,8.29-16.15,7.07-1.46,14.53,4.32,13.78,12.13,0,.48,0,1-.44,1.34l-5,0c-1,0-1.38.26-.49,1.1,0,.63-.15,1.19-.9,1.05-2.94-.53-5.89.15-8.85-.15A11.28,11.28,0,0,0,188.78,126.12Z"/><path class="cls-10" d="M270.31,307.94c4.16-.76,9.8,5.48,9.61,9.31a10.38,10.38,0,0,1-9.93,9.53,9.46,9.46,0,0,1-9.38-9.41A9.33,9.33,0,0,1,270.31,307.94Z"/><path class="cls-4" d="M253.16,180.29c-.06,1.79-.13,3.58-.19,5.37-1.29.21-1.62-.43-1.76-1.65a144.37,144.37,0,0,1-.75-20.16c.06-2.77-.36-5.58.6-8.29a.22.22,0,0,0,.21-.19c4.77,0,9.54,0,14.3-.1,1.16,0,1.41.39,1.4,1.45-.05,3.92,0,7.85,0,11.77a96.66,96.66,0,0,1-11.29.12c-1.93,0-2.76.35-2.62,2.48C253.24,174.15,253.13,177.22,253.16,180.29Z"/><path class="cls-8" d="M510.65,90.17c0-10,0-20,0-30.08,0-1.54.36-2,2-2q15.78.12,31.55,0c1.58,0,2,.44,2,2-.07,10,0,20.05,0,30.08a8.21,8.21,0,0,1-2.84,0c0-9.26,0-18.52.06-27.78,0-1.29-.4-1.69-1.68-1.69q-13.36.07-26.73,0c-1.34,0-1.65.48-1.65,1.72.06,9.26.07,18.52.09,27.78Z"/><path class="cls-3" d="M382.9,289.42l-.06,1.28c0,.69-.07,1.38-.1,2.07-.19,3.7-1.51,5-5.18,5H355.77a9.25,9.25,0,0,1-1.67-.1,2,2,0,0,1-1.68-1.65,1.76,1.76,0,0,1,.94-1.93,2.51,2.51,0,0,0,1.11-.9l5.88-4.29c6.8-.09,13.6-.19,20.4-.25C381.53,288.63,382.5,288.3,382.9,289.42Z"/><path class="cls-9" d="M487.79,90.13c0-4.77.13-9.54.07-14.31,0-1.56.27-2.22,2-2.14,2.95.15,3,0,2.76-2.82-.16-2.34-.54-4.69.19-7.22,1.38,3.29,1.13,6.69,1.86,10,1.89-5.08,2.05-10.68,5-15.49-.19,1.85-.27,3.73-.6,5.56-.52,2.9-1.21,5.76-1.79,8.65-.08.41-.45,1.23.17,1.24,2.34.06,1.48,1.77,1.51,2.86.1,4.56.08,9.12.11,13.68-2.89,1-5.86.24-8.78.42C489.49,90.61,488.51,91,487.79,90.13Z"/><path class="cls-1" d="M291,11.4c7.67-.31,15.33-.23,23,0-.93,7.4-5.37,11.64-11.87,11.35S291.22,17.9,291,11.4Z"/><path class="cls-11" d="M519.25,117.12c1.54,2.17.78,4.62.68,6.93s-2.13,1.2-3.37,1.42c.56-1.07-.42-1.41-1-1.77-1.64-1.07-3.37-2-5-3-2.52-1.56-2.81-3.82-.74-5.85.46-.44,1.11-.77.92-1.48s-1-.69-1.57-.84c-2.6-.64-2.62-.63-1.8-3.25.24-.78-.11-1-.77-1.11-1.13-.18-1.17-1-.73-1.71,1.17-2,2.66-3.69,5.13-3.9,1.74-.15,3.23.45,3.53,2.46a2.35,2.35,0,0,0,1.48,1.86c2.37,1.18,2.64,1.86,1.82,4.5-.49,1.55-1,3.1,0,4.65A2.24,2.24,0,0,0,519.25,117.12Z"/><path class="cls-12" d="M487.79,90.13c.72.82,1.7.48,2.54.43,2.92-.18,5.89.56,8.78-.42l11.54,0h2.7c1.95-.37,4,.66,5.92-.6a3.55,3.55,0,0,0,2.35.69c4.48,0,9,0,13.45,0a3.35,3.35,0,0,0,2.19-.52c2,.88,4,.2,6,.41a8.21,8.21,0,0,0,2.84,0c1,.07,2.15-.34,2.16,1.43s-1.25,1.5-2.3,1.5l-45,0h-2.67l-16.09,0c-.68,0-1.42-.15-1.9.56l-.74-.84c-.15-2,.75-2.86,2.84-2.68C484.17,90.28,486,90.14,487.79,90.13Z"/><path class="cls-9" d="M511.91,221.65a17.64,17.64,0,0,0-2.52,0c-1.7.23-2.3-.33-2.3-2.13,0-3.78-.1-3.78,3.69-3.78,8.6,0,17.21,0,25.82,0,1.48,0,2,.4,1.86,1.87-.11,1.32,0,2.66,0,4Z"/><path class="cls-4" d="M390.77,270.73q0-11,0-22l7.88-.17c.37,7.07.06,14.13.17,21.19,0,1-.58,1.11-1.36,1.1C395.24,270.79,393,270.76,390.77,270.73Z"/><path class="cls-5" d="M550.15,39.12c4.45.07,7.59,3.09,7.57,7.29a7.57,7.57,0,0,1-15.14,0A7.24,7.24,0,0,1,550.15,39.12Z"/><path class="cls-11" d="M511.91,221.65l26.58-.06c4.32.09,4.32.09,4.34,4.38v1l-30.83,0Z"/><path class="cls-5" d="M74.12,28.7a7.82,7.82,0,0,1-8,7.94,8,8,0,1,1,8-7.94Zm-7.91,3.62a3.76,3.76,0,0,0,3.6-3.64,3.7,3.7,0,1,0-7.4,0A3.79,3.79,0,0,0,66.21,32.32Z"/><path class="cls-12" d="M358.79,278.85l.21.87-64.75,0a4.17,4.17,0,0,0-2.22.47,1.44,1.44,0,0,1,0-1.31c2,0,4-.09,6.06.07,1.76.14,2.11-.62,2.06-2.18-.1-3.07,0-6.14,0-9.2,0-5.82,0-11.65.1-17.47,0-1.25-.52-1.54-1.64-1.51-2.17.06-4.35,0-6.52,0v-.87h3.53c4.39,0,4.39,0,4.7-4.24l.8.77c-.16,4.31-.39,3.36,3.22,3.46.13,0,.27,0,.41,0l.85.83a12.8,12.8,0,0,1-2.31.07c-1.95-.29-2.33.58-2.28,2.36.11,4.78,0,9.55.05,14.33,0,1.17-.28,2.39.31,3.51-.91,3.08-.23,6.22-.34,9.33,0,.87.82.79,1.44.79,9.66,0,19.31,0,29,0,1.17,0,1.62-.41,1.58-1.59-.06-2.16,0-4.33,0-6.5l.06-20.7c0-.63,0-1.28-.7-1.59a7,7,0,0,1,1.7-2.09c-.17,1.47.86,1.28,1.76,1.28l19.47,0,0,.87c-6,0-12.05,0-18.07,0-3.73,0-3.27-.48-3.29,3.18,0,6.31,0,12.61-.06,18.91,0,2.1,0,4.21-.09,6.3-.08,1.47.42,1.95,1.9,1.93C343.39,278.84,351.09,278.86,358.79,278.85Z"/><path class="cls-9" d="M515.34,247.63c-1.3-.29-3.2,1.07-3.71-1.39-.3-1.42-.68-2.82-1.17-4.79a12.48,12.48,0,0,0-.38,4.57c0,1.15-.41,1.6-1.58,1.67-4.91.33-4.91.36-4.91-4.47v-6.31c0-.42-.16-1,.06-1.23,1.41-1.5,3.24-.34,4.86-.65.82-.15,1.56.11,1.54,1.2a15.69,15.69,0,0,1,0,1.68c-.2,1.78.15,2.37,2.27,2.05,1.44-.21,3.07.72,4.68,0,.31-.13.48.42.6.75l2.49,6.93c-1.49-.25-2.94.85-4-.76-.48-1.43-.59-3-1.61-4.22-.06-.3-.11-.6-.16-.91-.06,0-.15.07-.16.12-.06.33-.05.64.34.78C514.39,244.36,515.3,245.93,515.34,247.63Z"/><path class="cls-9" d="M473.28,168.53c0-5,0-5,5-5,1.33,0,2.66-.05,4-.08l13.25.08c2.65,0,2.65,0,2.65,2.75a13.44,13.44,0,0,0,0,1.68c.17,1.29-.52,1.58-1.6,1.48l-12.6-.06c-.32-1-1.19-.77-1.91-.78Z"/><path class="cls-12" d="M285.77,217.43c-5.33,0-10.66,0-16,0-1.47,0-1.93.45-1.91,1.91,0,4.14-.05,8.27-.09,12.4a3.7,3.7,0,0,1-1.37-2.09c1.08-1.95.36-4,.45-6.08s.86-4.47-.3-5.67-3.83-.28-5.83-.43l-1-.08a3.33,3.33,0,0,1,0-1.85c.25.32.48.92.75.93,1.95.09,3.91.11,5.86.06.68,0,.56-.7.56-1.16,0-9.17,0-18.34,0-27.5,0-1.15-.49-1.42-1.51-1.4-1.89,0-3.78,0-5.67,0,0-.29,0-.57,0-.85,1.89,0,3.77-.08,5.65,0,1.2,0,1.57-.42,1.55-1.59-.05-3.69,0-7.39,0-11.09h1c0,3.51.09,7,0,10.52,0,1.63.41,2.21,2.11,2.18,5.27-.09,10.53,0,15.8,0v.82c-5.27,0-10.53.08-15.8,0-1.45,0-2.12.25-2.11,1.93q.12,13.17,0,26.33c0,1.45.41,1.94,1.89,1.92,5.34-.07,10.67,0,16,0Z"/><path class="cls-12" d="M398.67,248.55l-7.88.17c0-.38,0-.76,0-1.14l8,.11.86,0c10.17,0,20.33,0,30.49.07,1.19,0,1.57-.35,1.56-1.54-.07-8.83-.07-17.66-.09-26.5l1-.65c0,9.05,0,18.1-.07,27.15,0,1.23.44,1.56,1.59,1.54,3.58,0,7.16,0,10.74,0v.86c-3.36,0-6.72.08-10.08,0-1.71-.06-2.33.41-2.27,2.21.12,4.05,0,8.12.05,12.18.05,2.64-.3,5.3.22,7.94-.87,1.47-.18,3.08-.42,4.61H432c-.26-1.53.51-3.18-.48-4.64q0-10.38.12-20.77c0-.93-.27-1.4-1.31-1.4-10,0-20,0-30,0a2.68,2.68,0,0,0-.78.27A.93.93,0,0,0,398.67,248.55Z"/><path class="cls-1" d="M188.78,126.12a11.28,11.28,0,0,1,6.39-.73c3,.3,5.91-.38,8.85.15.75.14.93-.42.9-1.05,1.8-.49,3.64-.16,5.46-.19-.76,4.64-5.92,8-10.17,8.35S190.23,130.5,188.78,126.12Z"/><path class="cls-7" d="M532.64,310.48a6.83,6.83,0,0,1-7.08-6.73A7,7,0,0,1,532.9,297a6.55,6.55,0,0,1,6.51,6.8A6.38,6.38,0,0,1,532.64,310.48Zm.19-3.72a3.07,3.07,0,0,0,3.09-3,3.18,3.18,0,0,0-3.15-3c-2,0-3.54,1.33-3.52,3.09S530.68,306.78,532.83,306.76Z"/><path class="cls-6" d="M445,279.7h6.39c0,5.46-.06,10.93,0,16.39,0,1.5-.43,1.87-1.88,1.85-4.56,0-4.56,0-4.56-4.59S445,284.26,445,279.7Z"/><path class="cls-5" d="M86.3,331a5.72,5.72,0,0,1-5.87,6,6.09,6.09,0,0,1-6.31-5.9,6,6,0,0,1,6.31-5.88A5.69,5.69,0,0,1,86.3,331Zm-3.14.14a2.52,2.52,0,0,0-2.65-2.64c-1.48.14-3,.57-3.12,2.46a2.92,2.92,0,0,0,3,2.78A2.57,2.57,0,0,0,83.16,331.14Z"/><path class="cls-9" d="M483.82,180.77c-.05-.16-.09-.32-.13-.49.05-1.54.09-3.09.14-4.64,3.13,0,6.26,0,9.39,0,1.07,0,2.22.41,3.21-.39,1.46.52,3.59-.81,4.39.76.65,1.27.16,3.14.18,4.74Z"/><path class="cls-8" d="M496.43,175.23c-1,.8-2.14.36-3.21.39-3.13.06-6.26,0-9.39,0,0-2.09.07-4.19.11-6.27l12.6.06C496.5,171.37,496.47,173.3,496.43,175.23Z"/><path class="cls-6" d="M397.16,45.5c-.2,2.38-.57,4.79,1.8,6.46.54.39.39.88,0,1.23-.73.6-1.21,1.71-2.28,1.64-1.23-.09-2.05-2.38-1.33-3.44s.29-2.57.41-3.86a22.27,22.27,0,0,0-.06-2.31c0-1,.51-2.08-.85-2.67-3-1.31-5.95-2.67-9.08-4.08v5.8c-.52,2,.4,3.44,1.85,4.63,1.05.85.92,1.52-.12,2.28-.85.62-1.52,1.85-2.64.32-.66-.91-2-1.34-.65-3,.7-.87.08-2.81.06-4.27,0-2.1.12-4.19.12-6.28,0-1,.14-1.47,1.27-.94,3.48,1.63,7,3.2,10.48,4.8C397.89,42.6,396.57,44.33,397.16,45.5Z"/><path class="cls-12" d="M545.71,181.08c-2.81-.18-5.63.28-8.43-.27,0-2,.13-4.05,0-6.06-.13-1.76.62-2.24,2.17-2h4.12c1.6-.16,2.26.51,2.18,2.15C545.62,176.92,545.7,179,545.71,181.08Z"/><path class="cls-4" d="M274.28,155.46c-.56,2.38-1.08,4.78-1.68,7.15-.5,2-.79,3.87.72,5.79a18,18,0,0,1-5.55.14c0-3.85.05-7.7,0-11.54,0-1.41.4-1.83,1.77-1.73s2.93,0,4.4,0Z"/><path class="cls-4" d="M251.65,150.8q7.09,0,14.2-.06c.41,0,.85,0,1.07.44-.15,3.35-.15,3.35-3.55,3.35H253.7c-2.66,0-2.66,0-2.19-2.69C251.57,151.49,251.61,151.14,251.65,150.8Z"/><path class="cls-9" d="M543.54,172.7h-4.12c-.42-1.24.31-2.9-1.38-3.66,0,0,0-.22,0-.3a8.07,8.07,0,0,0,1-4.53,3.92,3.92,0,0,1,1.07-2.69,1.91,1.91,0,0,1,3,.46c.22.3.4.38.46.88C543.94,166.16,543.57,169.43,543.54,172.7Z"/><path class="cls-4" d="M260.73,217.45c2,.15,4.57-.88,5.83.43s.39,3.74.3,5.67.63,4.13-.45,6.08C264.53,225.56,262.12,221.74,260.73,217.45Z"/><path class="cls-10" d="M438.17,340.83c.12-2.95,2-4.68,5-4.67,2.59,0,4.31,1.82,4.46,4.68Z"/><path class="cls-13" d="M438.17,341.51h9.42c-.53,2.88-2.26,4.71-4.58,4.43S438.33,344.84,438.17,341.51Z"/><path class="cls-4" d="M300.29,76.9a57.17,57.17,0,0,1-8.38,0A47.29,47.29,0,0,1,300.29,70Z"/><path class="cls-4" d="M267.28,151.06c2.38-.71,4.81-.17,7.21-.32.81-.05.92.47.75,1.09-.23.87-.52,1.72-.79,2.57a1.06,1.06,0,0,0-.39.13h-.84a38,38,0,0,1-4.4,0C266.57,154.22,268.63,151.84,267.28,151.06Z"/><path class="cls-11" d="M521.27,116.68h-.82c.2-1.16.42-2.33.62-3.5a1.2,1.2,0,0,0-.57-1.43c-1.46-.78-.68-1.11.28-1.53a2.94,2.94,0,0,0,1.05-4.24c-.47-.62-.79-1.27.22-1.3,1.69-.07,1.49-1.36,1.83-2.34l.73.35c-.26,1.09-1,2.19.49,3.08.69.41.36.89-.37,1.13-2.18.71-2.48,1.82-1,3.75.26.34.33.79,0,.87-2.74.73-1.78,3.24-2.43,5A.76.76,0,0,0,521.27,116.68Z"/><path class="cls-13" d="M333.07,65.05V63.89a1.75,1.75,0,0,0,1.09-1.08c5.5-3.33,11-2.45,16.52,0a1.58,1.58,0,0,0,1.31.88c1.52,1.23,3.37,2.11,4.33,3.94-2.33-1.18-4.18-3-6.59-4-.59-.92-1.61-.65-2.45-.87a10.78,10.78,0,0,0-10.46,0c-.62.2-1.46,0-1.71.89l-1.17,1.05Z"/><path class="cls-6" d="M477.69,295a35.72,35.72,0,0,1,6-.06,8.9,8.9,0,0,0,0,1.46c.22,1.35-.4,1.74-1.64,1.58a10.15,10.15,0,0,0-1.46,0C477.7,297.93,477.7,297.93,477.69,295Z"/><path class="cls-2" d="M360.35,288.89l-5.88,4.29c-.1-.9-.78-.82-1.41-.83s-1.49-.17-1.46-1.1a1.51,1.51,0,0,1,1.35-1.39c1.89-.44,3.77-1,5.69-1.26,1-.14,1.35-.51,1.37-1.41C360.46,287.68,360.3,288.31,360.35,288.89Z"/><path class="cls-4" d="M285.77,248.56c0,2.14,0,4.27,0,6.41-2-2-4.19-3.84-5.48-6.44Z"/><path class="cls-13" d="M369.63,44.3c-.07,1.2.76,2.29.54,3.63-1.44-.79-.61-3-2.33-3.42.84-.68.14-1.22-.18-1.78-2.2-3.87-5.81-5.71-9.88-6.89-.4-.12-.81-.21-1.2-.33-.05,0-.08-.1-.32-.43a5.06,5.06,0,0,1,2.81.23c4.13,1.37,7.54,3.64,9.64,7.6C369,43.39,369.32,43.84,369.63,44.3Z"/><path class="cls-9" d="M524.61,102.69l-.73-.35a8,8,0,0,1-.88-.54c-.43-.32-1.09-.58-.9-1.24s.91-.64,1.41-.49c1.11.31,1.65-.31,2.16-1.31.29.87-.45,1.82.69,2.27.51.19,1.3.58,1,1.34s-1.09.38-1.69.38C525.3,102.76,525,102.71,524.61,102.69Z"/><path class="cls-4" d="M253,186.34a62.47,62.47,0,0,1,0,7.86c-.43-2.21-.85-4.42-1.3-6.63C251.48,186.48,252.05,186.24,253,186.34Z"/><path class="cls-14" d="M424.34,39.16c0,.85-.67,1.1-1.28,1.17-.85.1-1-.67-1.08-1.25-.11-.87.68-1,1.25-1.07C424.05,37.9,424.28,38.51,424.34,39.16Z"/><path class="cls-1" d="M210.38,124.3c-1.82,0-3.66-.3-5.46.19-.89-.84-.47-1.1.49-1.1l5,0Z"/><path class="cls-12" d="M285.77,248.56l-5.49,0a.74.74,0,0,1-.42-.72l5.91-.08Z"/><path class="cls-14" d="M514.52,242.65c1,1.22,1.13,2.79,1.61,4.22l-.79.76c0-1.7-1-3.27-.8-5Z"/><path class="cls-11" d="M521.82,125.44c-.55.07-1.19.2-1.33-.55-.1-.55-.32-1.29.63-1.46C521.76,124,521.43,124.82,521.82,125.44Z"/><path class="cls-7" d="M382.74,292.77c0-.69.07-1.38.1-2.07.09.55.19,1.1.28,1.66C383,292.49,382.87,292.63,382.74,292.77Z"/><path class="cls-15" d="M274.06,154.53a1.06,1.06,0,0,1,.39-.13c-.05.35-.11.71-.17,1.06l-.39-.2C274,155,274,154.78,274.06,154.53Z"/><path class="cls-12" d="M259.72,279.28v-.4a2.69,2.69,0,0,1,.16.29S259.77,279.24,259.72,279.28Z"/><path class="cls-15" d="M251.27,155.37a.22.22,0,0,1-.21.19C251,155.31,251,155.18,251.27,155.37Z"/><path class="cls-16" d="M263.12,78.18c.83.06,1.67.17,2.5.17h77.93c4.64,0,6.16,1.53,6.16,6.19q0,29.39,0,58.76c0,4.36-1.77,6.14-6.1,6.15-11.38,0-22.75,0-34.12,0-1.6,0-2-.43-2-2,.1-11,.09-22,.17-33.06,0-1-.25-1.19-1.16-1.19q-10,.06-20,0c-1.05,0-1.41.36-1.65,1.37-1.91,7.91-3.77,15.83-5.9,23.68-.93,3.41-2.15,6.75-2.85,10.23-.17.84-.69.92-1.37.92-9,0-18,0-27-.05-3,0-4.88-2.11-4.88-5.21q0-30.33,0-60.65a6.33,6.33,0,0,1,2.33-4.73c5.22,0,10.43,0,15.65-.06C261.62,78.75,262.55,79.1,263.12,78.18Z"/><path class="cls-5" d="M187.33,77.83c2.33-4.81,4.15-9.71,7-14.13a81.86,81.86,0,0,0,4.15-8.27c.24-.48.28-1.2,1-1.25s1.74-.22,2.24.16c.65.5-.13,1.28-.41,1.86-2.17,4.48-4.19,9-6.66,13.36-1.42,2.48-2.82,5-4,7.53C189.83,78.7,188.5,77.59,187.33,77.83Z"/><path class="cls-5" d="M204.69,74.45c-.71-2.06-.09-3.19,1.93-3.83s3.73-1.56,6-2.53c-2.23-1-4.08-2-6.05-2.67s-2.55-1.85-1.84-3.86c3.57,1.58,7.15,3.13,10.7,4.73,1.1.5,1.22,2.79.14,3.29C212,71.25,208.32,72.83,204.69,74.45Z"/><path class="cls-5" d="M184.47,74.5c-3.41-1.57-6.79-3.06-10.1-4.69a2.06,2.06,0,0,1,0-3.66c3.27-1.57,6.6-3,9.92-4.55.67,2.74.67,2.74-1.76,3.78L176.51,68c2.2,1,4.09,1.82,6,2.63C184.88,71.63,184.88,71.62,184.47,74.5Z"/><path class="cls-14" d="M352.38,172.87c.84,0,1.68-.09,2.51-.09h57.77c.83,0,1.67.06,2.51.09,3,1,5.9,2.5,9.05,3.18l.42,14.8c-2.41-.41-4.56,1-7,.89-5.78-.23-11.58-.07-17.37-.07-6.74,0-13.48,0-20.21,0-.86,0-1.94-.3-2.07,1.11-4.49-3.37-10.17-4.92-13.94-9.42.14,1.68,1.75,2.32,2.3,3.93-5.11.2-9,2.54-12.14,6.14-3.64,0-7.29-.07-10.93-.08-1.15,0-2.27,0-2.92-1.21a25.14,25.14,0,0,0,3.65-5.57l.77-1Z"/><path class="cls-16" d="M297.77,168.88H278.2c-3.85,0-5.38-1.93-4.49-5.65,1.18-4.91,2.16-9.88,3.66-14.68,3.33-10.69,5.51-21.65,8.28-32.47.31-1.2.75-1.56,2-1.55,5.61.07,11.22.06,16.83,0,1.24,0,1.72.08,1.33,1.59-2,7.88-3.54,15.89-5.92,23.65-2.07,6.74-3.51,13.61-5.31,20.41-1,3.87,1.16,6.63,5.19,6.66,6.18,0,12.35,0,18.52,0,.64,0,1.65-.47,1.68.89s-1,1.09-1.75,1.09C311.37,168.89,304.57,168.88,297.77,168.88Z"/><path class="cls-15" d="M342.68,150.87c2.22-.05,4.43-.13,6.64-.14a9.48,9.48,0,0,0,5-1.18l4.89,1.14c-1.13,1.23-2.88,1.83-3.63,3.49,1.52-1.27,3.91-1.41,4.65-3.64,1-.43,1.77-1.51,3-1.42.7.71,1.59.41,2.4.41,14.63,0,29.26,0,43.89,0,1.13,0,2.26.54,3.39,0a.75.75,0,0,1,.48.79,50.78,50.78,0,0,0-5.81.55c-3.11.66-6.7,2.91-6.8,6.58-2.24,2.7-3.4,6-5.17,9a11.6,11.6,0,0,1-1.44-.2l-15.6-3.84c2.32-3.45,2.54-7.32.27-9.38a9.43,9.43,0,0,1-1.2,9.14c-2.16-.5-4.3-1.17-6.48-1.48-6.74-1-12.89,1.52-15.94,7.86a90.27,90.27,0,0,1-9.45,0c-2-1.52-4.52-1.53-6.6-2.72C339.83,160.7,341.38,155.81,342.68,150.87Z"/><path class="cls-6" d="M444.86,248.58v-32q0-4.46,0-8.91c0-.88,0-1.76,0-2.64l0-18.59c0-.51,0-1,0-1.55l.15-4.62h6.27c0,.18.09.36.14.53v5.54q0,9.31,0,18.64v42.71c0,.28,0,.57,0,.85l0,22.27v.43c0,1.4-.09,2.8-.14,4.2h-6.23c-.07-1.54-.13-3.09-.2-4.63Q444.87,259.72,444.86,248.58Z"/><path class="cls-4" d="M349.73,63.58c2.41,1,4.26,2.85,6.59,4-1-1.83-2.81-2.71-4.33-3.94,4.27,0,8.53,0,12.8-.06,1.17,0,1.56.33,1.56,1.53q-.08,12.81,0,25.61c0,1.19-.37,1.57-1.56,1.54-2.79-.07-5.59,0-8.39,0,0-3-.09-6-.14-9-.07-3.89-2.27-6.1-6.13-6.16L334,76.91q0-6.14,0-12.26l1.17-1.05Z"/><path class="cls-16" d="M424.64,190.85l-.42-14.8.15-3.24c6.36,0,12.72,0,19.07-.06,1.31,0,1.6.51,1.37,1.63-.05,0-.15.1-.14.13a2.22,2.22,0,0,0,.14.32v1.26a1.9,1.9,0,0,0,0,1.85.13.13,0,0,1-.06.22c-1.42,2-1.76,4.49-2.54,6.75-2,5.93-3.92,11.92-5.85,17.88-.53,1.67-1,3.36-1.53,5-.21.66-.6,1.56-1.42.6-2.08-2.44-4.88-2.35-7.7-2.43-1.28,0-2.65.46-3.86-.41,1.26-2.39,2.64-4.73,2.59-7.56l.25-.41Z"/><path class="cls-15" d="M447.14,168.54l-30,.08c-.43,0-1.06.15-1-.66,1.7.19,3.37.23,4.64-1.2a11.12,11.12,0,0,0,2.8-10.81c-.58-2.27-2.29-3.78-3.39-5.69a6.79,6.79,0,0,1,3.22-.37,5,5,0,0,0,2.44.49c6.18,0,12.36,0,18.53,0,.68,0,1.43.22,2-.42,2.8,1,4.08,3.37,5.12,5.93C452.63,161,451.38,165.27,447.14,168.54Z"/><path class="cls-12" d="M463.91,85.92c0,6.22.1,12.45,0,18.67,0,1.6.47,2,2,2,5.39-.08,10.77,0,16.16,0,2,0,4.06.13,6.08,0,1.82-.14,2.39.42,2.36,2.31-.1,9.22-.05,18.44,0,27.66,0,.74-.47,1.76.78,2.08-.08,1.27-.64,2.49-.39,3.79a4,4,0,0,0-.26.45s.19.19.24.17c.3-.11.32-.37.28-.64.38-.73.2-1.71,1-2.48v2.87l0,0c-.31,0-.3.22-.22.44-.31.63-.93.41-1.43.52l-.44,0h-1.67l-.87,0,0-.17q0-14.57,0-29.13c0-5.43,0-5.43-5.51-5.36s-10.92,0-16.38,0c-1,0-1.75-.07-1.74,1.35.09,11.05.11,22.1.15,33.16,0,.89,0,1.78,0,2.68q0,11.11-.1,22.23h-.8c0-3.76-.09-7.52,0-11.27.05-1.62-.49-2-2-2-2,.11-4,0-6.05,0l.05-1.13c2.2.49,4.42.12,6.63.22,1.14.06,1.39-.6,1.36-1.58,0-2.15-.06-4.3-.09-6.45a5.65,5.65,0,0,0-.05-2.71c.05-6,.07-12.06.15-18.08,0-1-.37-1.35-1.35-1.33-2.39,0-4.78.11-7.16,0-1.55-.08-2,.36-2,2,.09,4.28,0,8.56-.05,12.83-.67-1.25-2.22-1.86-2.52-3.39,0-3.3-.08-6.6-.05-9.9,0-1-.26-1.51-1.41-1.5q-7.37.07-14.74,0c-1.15,0-1.43.45-1.4,1.5.06,1.89,0,3.79,0,5.69l-.81.05c0-1.74-.11-3.49,0-5.22.1-1.48-.24-2.13-1.91-2-2.77.15-5.56.05-8.35.06a1,1,0,0,1-.3-1c2.94,0,5.88-.06,8.81,0,1.21,0,1.75-.27,1.75-1.62q-.07-13.64,0-27.27c0-1-.27-1.31-1.28-1.29-3,.06-6,0-9,0a.62.62,0,0,1,0-.87l5.42,0c4.79,0,4.79,0,4.84-4.68,0-.14,0-.28,0-.41a.83.83,0,0,1,.78.51,17.68,17.68,0,0,1,0,2.52c-.21,1.65.39,2.16,2.06,2.1,3.49-.15,7-.07,10.49-.08v.89c-3.64,0-7.28,0-10.92,0-1.3,0-1.65.38-1.65,1.66q.09,13.55,0,27.1c0,1.19.35,1.54,1.54,1.53,4.62-.06,9.24-.1,13.86,0,1.85,0,2.45-.6,2-2.34,1.27-1.61.75-3.54.53-5.21-.35-2.72-.19-5.42-.38-8.13-.2-1.21.61-1.17,1.43-1.17,3.3,0,6.6-.05,9.89,0,1.34,0,1.87-.33,1.83-1.76q-.15-5,0-10.1c0-1.36-.47-1.64-1.71-1.61-4.21.07-8.42,0-12.63.06l0-.89c2.8,0,5.6.06,8.39,0,1.93-.06,4.49.9,5.6-.43.95-1.13.29-3.6.34-5.48A.79.79,0,0,1,463.91,85.92Zm-.76,30.38c0-1.89,0-3.79,0-5.68,0-1-.25-1.53-1.4-1.49-2.52.06-5.05.05-7.57,0-1,0-1.55.25-1.53,1.4,0,3.85,0,7.71,0,11.56,0,.84.19,1.29,1.16,1.28,2.66-.05,5.33,0,8,0,1,0,1.37-.41,1.35-1.39C463.11,120.08,463.14,118.19,463.15,116.3Z"/><path class="cls-4" d="M301,172.88q16-.27,32,0c0,3.65-.05,7.3,0,10.94,0,1.41-.47,1.77-1.82,1.77q-14.21-.08-28.4,0c-1.56,0-1.86-.59-1.83-2C301.08,180,301,176.46,301,172.88Z"/><path class="cls-4" d="M356.42,123.32c-.05-4.12-.15-8.25-.15-12.37,0-6,.08-11.89.12-17.84,2.81,0,5.62,0,8.43,0,1,0,1.53.13,1.52,1.34q-.06,13.69,0,27.38c0,1.11-.44,1.46-1.5,1.45C362,123.25,359.23,123.3,356.42,123.32Z"/><path class="cls-4" d="M333,168.54c-3.36,0-6.71.06-10.07.13-1,0-1.45-.32-1.33-1.33.18-1.48-.68-1.72-1.92-1.72-6.23,0-12.45,0-18.68-.07,0-2.73.12-5.47,0-8.2-.06-1.56.41-2,2-2,6.16.08,12.33,0,18.49,0,1,2.16,2.08,4.32,4.39,5.31a49.52,49.52,0,0,0,7.16,2.82C333.05,165.16,333,166.85,333,168.54Z"/><path class="cls-10" d="M400.8,157.45c.1-3.67,3.69-5.92,6.8-6.58a50.78,50.78,0,0,1,5.81-.55l1.14,0,1.85,1.37c1.79,1.31,3.32,2.81,3.81,5.1,1,4.47-1.16,8.62-5.5,10.82-2.71-.23-5.49-.07-8.1-.94C402.15,165.14,400.51,162.43,400.8,157.45Z"/><path class="cls-4" d="M359.19,150.69l-4.89-1.14a7.72,7.72,0,0,0,2-5.77c0-6.51.06-13,.11-19.54,2.58,0,5.18.11,7.76,0,1.75-.11,2.23.43,2.21,2.19-.09,6.71,0,13.42,0,20.13l-1.46,1.37a2.66,2.66,0,0,0-1.69,1.22c-1.27-.09-2,1-3,1.42Z"/><path class="cls-14" d="M378.59,162.4l15.6,3.84a11.6,11.6,0,0,0,1.44.2c1.32,1.17,3.33.74,4.93,2.08-.7.07-1.09.14-1.48.14h-42.8a9.2,9.2,0,0,1-1-.12c3.05-6.34,9.2-8.82,15.94-7.86,2.18.31,4.32,1,6.48,1.48Z"/><path class="cls-4" d="M285.77,185.59c-5.27,0-10.53-.09-15.8,0-1.7,0-2.15-.55-2.11-2.18.1-3.5,0-7,0-10.52,5.52,0,11,0,16.56-.14,1.13,0,1.43.41,1.41,1.47,0,2,.05,4.05.09,6.07C285.88,182.06,285.82,183.82,285.77,185.59Z"/><path class="cls-12" d="M366.4,146.53c0-6.71-.12-13.42,0-20.13,0-1.76-.46-2.3-2.21-2.19-2.58.14-5.18,0-7.76,0,0-.31,0-.61,0-.92,2.81,0,5.61-.07,8.42,0,1.06,0,1.5-.34,1.5-1.45q0-13.69,0-27.38c0-1.21-.53-1.36-1.52-1.34-2.81,0-5.62,0-8.43,0,0-.28,0-.56,0-.84,2.8,0,5.6,0,8.39,0,1.19,0,1.56-.35,1.56-1.54q-.08-12.81,0-25.61c0-1.2-.39-1.55-1.56-1.53-4.27.07-8.53,0-12.8.06a1.58,1.58,0,0,1-1.31-.88l11.54-.15c.7-.24,1.37.74,2.08,0,5.18,0,10.37.08,15.55.08h44.58c.84,0,1.68.07,2.51.11a.87.87,0,0,1-.51.77c-8.26,0-16.51,0-24.77,0-1.62,0-2.12.36-2.11,2.06.07,8.53,0,17.07,0,25.61-.46-.12-.65-.5-.85-.88,0-8.48.05-17,.13-25.44,0-1.46-.84-1.32-1.77-1.32-9.33,0-18.65,0-28,0-1.29,0-1.84.26-1.83,1.73q.11,12.61,0,25.24c0,1.49.6,1.73,1.87,1.71,2.8-.05,5.6,0,8.41,0l-.58.84c-2.52,0-5.05.07-7.56-.09-1.71-.1-2.26.38-2.24,2.17.1,7.92.05,15.84.05,23.77,0,4.4,0,4.4,4.47,4.31l.12.91a16.18,16.18,0,0,1-2.31,0c-1.84-.28-2.37.4-2.33,2.28.13,6.44.06,12.88.07,19.33Z"/><path class="cls-12" d="M301,172.88c0,3.58.05,7.15,0,10.73,0,1.38.27,2,1.83,2q14.19-.09,28.4,0c1.35,0,1.85-.36,1.82-1.77-.09-3.64,0-7.29,0-10.94h1c0,3.63.06,7.26,0,10.88,0,1.35.42,1.86,1.8,1.82,3-.07,6,0,9,0l-.77,1c-2.86,0-5.72,0-8.57-.13-1.24,0-1.54.48-1.52,1.61,0,2.79-.05,5.58,0,8.37.06,2.14-.37,4.31.28,6.42a3.33,3.33,0,0,1-1.14,1.85c0-5.4-.12-10.79,0-16.19,0-1.69-.52-2.09-2.14-2.08q-13.87.1-27.75,0c-1.79,0-2.2.56-2.18,2.26q.12,12.93,0,25.87c0,1.7.5,2.08,2.12,2.07,7.29-.05,14.57,0,21.86.06l-.62,1.09a2.89,2.89,0,0,0-.8-.22c-7,0-14,0-21-.05-1.49,0-1.5.79-1.49,1.87,0,5.47,0,10.93,0,16.4-.42.08-.64-.23-.89-.47,0-5.4,0-10.8.12-16.2,0-1.18-.39-1.63-1.59-1.59-2.17.07-4.35,0-6.52.05l0-1c2.17,0,4.34,0,6.51,0,1.11,0,1.64-.23,1.64-1.5q-.08-13.56,0-27.12c0-1.24-.5-1.56-1.63-1.53-2.17.05-4.34,0-6.52,0,0-.28,0-.57,0-.85,2,0,4.06-.1,6.09,0,1.54.08,2.1-.37,2.05-2-.09-3.57,0-7.14,0-10.71Z"/><path class="cls-4" d="M344.77,185.57c-3,0-6-.07-9,0-1.38,0-1.82-.47-1.8-1.82.07-3.62,0-7.25,0-10.88h18.39Z"/><path class="cls-10" d="M333.07,163.47a49.52,49.52,0,0,1-7.16-2.82c-2.31-1-3.39-3.15-4.39-5.31,0-.29.05-.58.08-.88l.09-3.62h15.49c-.8,4.46-2.27,8.79-2.85,13.3a.48.48,0,0,1-.35.18A1.07,1.07,0,0,0,333.07,163.47Z"/><path class="cls-2" d="M455.16,154.16c0,.37,0,.75-.05,1.13-1.84,4.28-3,8.8-4.41,13.23a9.27,9.27,0,0,1-3.56,0c4.24-3.27,5.49-7.56,4.3-12.67.62-.06.7-.56.86-1a15.33,15.33,0,0,0-10.51-20c-5.1-1.44-10.28-.62-15.43-.79a3.5,3.5,0,0,1-1.9-2.36l7.19-.19.81-.05a24.39,24.39,0,0,0,2.69.15A23.34,23.34,0,0,1,446.84,134c1.09.52,1.77,1.86,3.22,1.65.3,1.53,1.85,2.14,2.52,3.39.84,1.57,1.69,3.13,2.54,4.7a5.39,5.39,0,0,0,.51,2.62C455.54,148.94,456,151.59,455.16,154.16Z"/><path class="cls-4" d="M450.7,168.52c1.42-4.43,2.57-9,4.41-13.23,2,0,4,.14,6.05,0,1.53-.08,2.07.34,2,2-.11,3.75,0,7.51,0,11.27C459,168.72,454.85,168.76,450.7,168.52Z"/><path class="cls-12" d="M451.44,217.44v-.83c3.29,0,6.58-.09,9.87,0,1.52,0,2-.49,1.85-1.93a28.38,28.38,0,0,1,0-4.61c.16-1.79-.35-2.49-2.29-2.39-3.14.17-6.3,0-9.45,0V205c3.35,0,6.7,0,10.06,0,.9,0,1.68,0,1.65-1.27-.12-5.79.22-11.59-.18-17.38.33-.21.4-.42,0-.65,0-.69,0-1.38.07-2.07a7.12,7.12,0,0,0,0-2.76c0-2.66.07-5.31.1-8H464c0,2.64,0,5.29.08,7.93v2.76c0,6.64,0,13.28-.07,19.92,0,1.07.35,1.53,1.45,1.48,1.95-.11,3.92.17,5.86-.22l1.4.22h4.81a4.37,4.37,0,0,1,.1,2.79c-4,0-7.94,0-11.91-.06-1.41,0-1.77.46-1.72,1.79.09,2.86,0,5.71,0,8.57h-.89c-.44-1-1.33-.6-2-.61C457.88,217.42,454.66,217.44,451.44,217.44Z"/><path class="cls-4" d="M300.27,172.88c0,3.57-.12,7.14,0,10.71.05,1.62-.51,2.07-2.05,2-2-.11-4.06,0-6.09,0l-.21-5.28c.05-1.94.16-3.88.11-5.82,0-1.2.25-1.79,1.6-1.72C295.82,172.87,298.05,172.84,300.27,172.88Z"/><path class="cls-4" d="M463.16,172.88c0,2.65-.07,5.3-.1,8H451.43l-.14-.53c0-2,.1-4,.08-6.05,0-1,.2-1.53,1.37-1.5C456.21,172.85,459.69,172.84,463.16,172.88Z"/><path class="cls-4" d="M266.91,172.89c0,3.7,0,7.4,0,11.09,0,1.17-.35,1.63-1.55,1.59-1.88-.06-3.76,0-5.65,0l-.18-5.29c0-2,.17-3.89.13-5.83,0-1.21.26-1.81,1.61-1.72C263.15,172.88,265,172.85,266.91,172.89Z"/><path class="cls-4" d="M321.69,150.84l-.09,3.62-17,0c-3.61,0-3.61,0-3.61-3.62C307.91,150.7,314.8,150.63,321.69,150.84Z"/><path class="cls-16" d="M334.33,164.15c.58-4.51,2.05-8.84,2.85-13.3a24.09,24.09,0,0,1,5.5,0c-1.3,4.94-2.85,9.83-3.49,14.93Z"/><path class="cls-16" d="M414.71,167.57c4.34-2.2,6.45-6.35,5.5-10.82-.49-2.29-2-3.79-3.81-5.1l-1.85-1.36a9.75,9.75,0,0,1,4.42-.48l1.18.45c1.1,1.91,2.81,3.42,3.39,5.69a11.12,11.12,0,0,1-2.8,10.81c-1.27,1.43-2.94,1.39-4.64,1.2Z"/><path class="cls-8" d="M464.05,183.58c0-.92,0-1.84,0-2.76l6.18-.12c2.43-.18,4.91.57,7.3-.41l.27.05a9.09,9.09,0,0,1-.31,3.2Z"/><path class="cls-4" d="M300.24,165.55c-3.86.11-5.24-1.52-4.4-5.24a25.54,25.54,0,0,1,1.37-5c3,.1,3,.1,3,3.08C300.21,160.78,300.23,163.16,300.24,165.55Z"/><path class="cls-4" d="M470.24,180.7l-6.18.12c0-2.64-.06-5.29-.08-7.93a1.88,1.88,0,0,1,1.38.05c-.35,1.86.3,2.68,2.29,2.43a3.77,3.77,0,0,1,2.63.28C470.26,177.34,470.25,179,470.24,180.7Z"/><path class="cls-12" d="M300.24,165.55c0-2.39,0-4.77,0-7.16,0-3,0-3-3-3.08.07-.3.13-.6.2-.9,2.77.16,2.77.16,2.8-2.5,0-.35,0-.69,0-1H301c0,3.62,0,3.62,3.61,3.62l17,0c0,.3-.05.59-.08.88-6.16,0-12.33.06-18.49,0-1.58,0-2,.47-2,2,.11,2.73,0,5.47,0,8.2Z"/><path class="cls-9" d="M470.24,180.7c0-1.68,0-3.36,0-5h7.17l.09,4.64C475.15,181.27,472.67,180.52,470.24,180.7Z"/><path class="cls-8" d="M477.45,175.65h-7.17a3.77,3.77,0,0,0-2.63-.28c-2,.25-2.64-.57-2.29-2.43a96.66,96.66,0,0,1,10.9-.14C478.5,172.82,477.16,174.64,477.45,175.65Z"/><path class="cls-4" d="M334.33,164.15l4.86,1.65c2.08,1.19,4.65,1.2,6.6,2.72a115.07,115.07,0,0,1-11.6,0c-.08-.18-.16-.35-.23-.52,0-1.24,0-2.48,0-3.72A.48.48,0,0,0,334.33,164.15Z"/><path class="cls-17" d="M424.37,172.81l-.15,3.24c-3.15-.68-6-2.17-9.05-3.18Z"/><path class="cls-12" d="M333.94,64.65q0,6.13,0,12.26H333c0-4,0-7.91.05-11.87Z"/><path class="cls-4" d="M300.25,150.87c0,.35,0,.69,0,1,0,2.66,0,2.66-2.8,2.5.11-.61.26-1.22.31-1.84C297.87,150.94,298.75,150.46,300.25,150.87Z"/><path class="cls-12" d="M334,164.33l0,3.72-.12.51-.8,0c0-1.69,0-3.38,0-5.07A1.07,1.07,0,0,1,334,164.33Z"/><path class="cls-17" d="M444.78,177.94a1.9,1.9,0,0,1,0-1.85A2.42,2.42,0,0,1,444.78,177.94Z"/><path class="cls-10" d="M333.83,168.56l.12-.51.24.52-.18.06Z"/><path class="cls-17" d="M444.81,174.83a2.22,2.22,0,0,1-.14-.32s.09-.09.14-.13Z"/><path class="cls-4" d="M451.42,270.84l0-22.27c3.29,0,6.58.08,9.87,0,1.52-.05,1.88.5,1.86,1.93-.07,3.85,0,7.7,0,11.55l-3,2.85-.48.48,0-.05c-2.79,1.67-5,4.17-8,5.61A.68.68,0,0,0,451.42,270.84Z"/><path class="cls-4" d="M464.38,261.16l-.35-.05q0-6.71,0-13.43l13.15.07c-1.72,2.47-3.93,4.53-5.83,6.84s-4.6,3.6-6.29,6h.07A1,1,0,0,0,464.38,261.16Z"/><path class="cls-4" d="M495.15,277.25c0,1.33-.06,2.66,0,4,.06,1.1-.66,1.61-1.36,1.17-1.3-.83-2.28,0-3.4.2a5.38,5.38,0,0,1-5.94-2.52,6.11,6.11,0,0,1,.65-6.86,5.61,5.61,0,0,1,6.54-1.13c.34.15.54.47,1.09.26,2.37-.91,2.39-.86,2.4,1.54Zm-5.51-3.51c-2.19,0-3.42,1.2-3.45,3.31a3.21,3.21,0,0,0,3.54,3.47,3.27,3.27,0,0,0,3.3-3.34A3.31,3.31,0,0,0,489.64,273.74Z"/><path class="cls-4" d="M471.31,272c1.82-.68,2.69-.08,3.21,1.6.59,1.93,1.43,3.77,2.25,5.88,1.39-1.8,1.66-3.84,2.48-5.63.24-.51.43-1,.68-1.53.48-.93,1.4-.68,2-.47.86.28.17,1,0,1.37-1.06,2.74-2.22,5.43-3.27,8.17a1.55,1.55,0,0,1-1.76,1.09c-.79,0-1.49,0-1.86-.93C473.86,278.37,472.58,275.21,471.31,272Z"/><path class="cls-12" d="M464.08,247.68q0,6.72-.05,13.43l-.83.92c0-3.85-.09-7.7,0-11.55,0-1.43-.34-2-1.86-1.93-3.29.1-6.58,0-9.87,0v-.85l9.41-.07c.74-.38,3.16,1.31,1.9-1.54a1.24,1.24,0,0,0,.39-1.13q0-7.53-.07-15.06a3.05,3.05,0,0,1,.13-.32H464a1.73,1.73,0,0,1,.11.32q0,8.11,0,16.24Z"/><path class="cls-4" d="M498.81,277.07v-4.19c0-.61.19-1.36.87-1.07,1.63.69,3.07-.26,4.59-.25.6,0,1.69-.31,1.55,1.06-.1,1.09-.57,1.3-1.64,1.23-2-.13-2.94.77-3.05,2.83-.08,1.53,0,3.07,0,4.61,0,.76-.19,1.18-1.05,1.18s-1.3-.27-1.27-1.2C498.84,279.87,498.81,278.47,498.81,277.07Z"/><path class="cls-16" d="M464.38,261.16a1,1,0,0,1,.79-.55C465.11,261.08,464.76,261.14,464.38,261.16Z"/><path class="cls-16" d="M459.7,265.36l.48-.48Z"/><path class="cls-16" d="M385.73,44.27v-5.8c3.13,1.41,6.09,2.77,9.08,4.08,1.36.59.89,1.68.85,2.67A97.25,97.25,0,0,0,385.73,44.27Z"/><path class="cls-6" d="M364.3,62.67c-.71.71-1.38-.27-2.08,0-1.47-.61-1.76-1.53-1.61-3.21.31-3.25.07-6.56.12-9.84,0-.58-.48-1.63.69-1.59.93,0,.59,1,.6,1.51,0,2.24.05,4.47,0,6.71,0,1.1.06,1.89,1.34,2.43C365.68,59.63,365.63,59.76,364.3,62.67Z"/><path class="cls-4" d="M399.52,91.27c0-8.54.1-17.08,0-25.61,0-1.7.49-2.08,2.11-2.06,8.26.08,16.51,0,24.77,0-4.66,5.07-3.9,11-2.33,16.85,1,3.54,4.3,5.27,7.55,6.69,0,.13,0,.27,0,.41-.05,4.68-.05,4.68-4.84,4.68l-5.42,0c-.33-2.23-.55-4.39,2.42-5a.87.87,0,0,0,.37-.19.83.83,0,0,0,.17-1.13c-.27-.41-.61-.09-.92,0-3.16,1-3.44,1.37-3.47,4.66,0,.56-.06,1.11-.1,1.67l-19.26.11ZM421.39,76.8c.05-1.68-1.54-5-2.25-4.68-1.6.74-4.08.06-4.74,2.2-.47,1.48,1.58,4.85,2.43,4.85C418.15,79.16,421.37,77.49,421.39,76.8Z"/><path class="cls-4" d="M449.88,121.05c.43,1.74-.17,2.38-2,2.34-4.62-.11-9.24-.07-13.86,0-1.19,0-1.55-.34-1.54-1.53q.06-13.56,0-27.1c0-1.28.35-1.69,1.65-1.66,3.64.08,7.28,0,10.92,0,.78,5.41.79,10.88,1.25,16.32.3,3.46,1.08,6.87,1.14,10.35C447.44,121.75,448.94,120.84,449.88,121.05Z"/><path class="cls-4" d="M448.84,93.16c4.21,0,8.42,0,12.63-.06,1.24,0,1.75.25,1.71,1.61q-.15,5.06,0,10.1c0,1.43-.49,1.79-1.83,1.76-3.29-.08-6.59,0-9.89,0-.82,0-1.63,0-1.43,1.17A97.23,97.23,0,0,1,448.84,93.16Z"/><path class="cls-4" d="M463.14,86.33c-.05,1.88.61,4.35-.34,5.48-1.11,1.33-3.67.37-5.6.43-2.79.09-5.59,0-8.39,0-.58-4.71-.58-4.7,4.22-4.71C456.45,87.56,459.9,87.87,463.14,86.33Z"/><path class="cls-4" d="M445,92.23c-3.49,0-7-.07-10.49.08-1.67.06-2.27-.45-2.06-2.1a17.68,17.68,0,0,0,0-2.52c3.75,0,7.51-.07,11.27-.13a1,1,0,0,1,1.17,1.11C444.91,89.86,445,91,445,92.23Z"/><path class="cls-4" d="M450.92,81.26c-.48,0-1,.14-1.15-.56s-.08-1.17.69-1.27c1.55-.22,2-1.24,1.73-2.58s1.59-2.63,1.25-3.42c-.48-1.11-1.33-2.05-1.23-3.4.08-1.18-.25-2.12-1.56-2.31-.87-.12-1-.64-.9-1.32.2-1,1-.64,1.53-.52a3.45,3.45,0,0,1,3,3.72c0,1.27-.14,2.48,1.5,3.06a.93.93,0,0,1,.06,1.76c-1.66.55-1.54,1.72-1.57,3C454.23,79.67,452.85,81.21,450.92,81.26Z"/><path class="cls-4" d="M441.51,81.21c-1.92-.23-3.14-1.67-3.15-3.88,0-1.23.09-2.31-1.41-2.9a1,1,0,0,1,0-1.8c1.6-.64,1.42-1.83,1.44-3.11a3.52,3.52,0,0,1,3.28-3.71c.44,0,1.06-.31,1.19.43.1.55.17,1.16-.63,1.31-1.63.3-2,1.45-1.74,2.83s-1.61,2.49-1.16,3.34a6.26,6.26,0,0,1,1.14,3.45c-.07,1.13.31,2,1.51,2.14.84.13,1,.63.89,1.35S442,81.19,441.51,81.21Z"/><path class="cls-4" d="M259.74,186.44c1.89,0,3.78.05,5.67,0,1,0,1.51.25,1.51,1.4,0,9.16,0,18.33,0,27.5,0,.46.12,1.14-.56,1.16-1.95.05-3.91,0-5.86-.06-.27,0-.5-.61-.75-.93C259.57,205.82,259.53,196.13,259.74,186.44Z"/><path class="cls-4" d="M285.77,216.61c-5.34,0-10.67-.06-16,0-1.48,0-1.9-.47-1.89-1.92q.09-13.17,0-26.33c0-1.68.66-2,2.11-1.93,5.27.05,10.53,0,15.8,0Z"/><path class="cls-3" d="M300.1,235.3c.25.24.47.55.89.47a87,87,0,0,0,8.7,3.92c5.32,5.57,11.26,10.47,17,15.63-.85.92-1.68,1.86-2.56,2.75-2.95,3-5,3-8.06.09-3.46-3.25-7-6.45-10.45-9.67l-.85-.83a17.33,17.33,0,0,0-3.63-3.42l-.8-.77c-.29-.29-.56-.6-.87-.86a38.35,38.35,0,0,1-6.93-6.72c0-.52,0-1,0-1.56.79-1.34,1.88-1.13,3.09-.68C297.1,234.21,298.44,235.19,300.1,235.3Z"/><path class="cls-4" d="M292.08,186.42c2.18,0,4.35.08,6.52,0,1.13,0,1.63.29,1.63,1.53q-.06,13.56,0,27.12c0,1.27-.53,1.53-1.64,1.5-2.17,0-4.34,0-6.51,0C291.88,206.54,291.86,196.48,292.08,186.42Z"/><path class="cls-4" d="M300.1,235.3c-1.66-.11-3-1.09-4.49-1.65-1.21-.45-2.3-.66-3.09.68-.51-.15-.56-.58-.55-1q.06-7.89.14-15.77c2.17,0,4.35,0,6.52-.05,1.2,0,1.61.41,1.59,1.59C300.15,224.5,300.13,229.9,300.1,235.3Z"/><path class="cls-4" d="M292.07,248.59c2.17,0,4.35,0,6.52,0,1.12,0,1.65.26,1.64,1.51-.08,5.82-.08,11.65-.1,17.47-3-1.24-4.93-3.81-7.46-5.61l-.68-.66Q292,254.94,292.07,248.59Z"/><path class="cls-16" d="M292.67,261.93c2.53,1.8,4.49,4.37,7.46,5.61,0,3.06-.07,6.13,0,9.2,0,1.56-.3,2.32-2.06,2.18-2-.16-4-.06-6.06-.07-.23-5.6-.22-11.2,0-16.8Z"/><path class="cls-4" d="M292.5,235.89a38.35,38.35,0,0,0,6.93,6.72c.31.26.58.57.87.86-.31,4.24-.31,4.24-4.7,4.24h-3.53q-.06-5.41-.11-10.82C292,236.48,292,236.05,292.5,235.89Z"/><path class="cls-12" d="M292.67,261.93l-.64.12a.63.63,0,0,1,0-.78Z"/><path class="cls-11" d="M355.29,248.56c0-.29,0-.58,0-.87-.18-2.44-.37-4.89-.55-7.33l-.13-.65-.15-3.39a4.44,4.44,0,0,1,2.5-.87c9,.06,18.09.06,27.13.07q0,6.09.07,12.18l0,.9H384c-1.27.08-.87,1.07-.88,1.74-.05,2.81-.11,5.61,0,8.41.06,1.56-.41,2.06-2,2-8.13-.08-16.26-.05-24.39-.05-.06-.82-.12-1.65-.19-2.47,0,0,0-.1,0-.14a1.39,1.39,0,0,0-.1-.26Z"/><path class="cls-4" d="M355.29,248.56l1.17,9.31c0,.05-.1.11-.09.13a1.48,1.48,0,0,0,.16.27c.07.82.13,1.65.19,2.47l1,10.1h-3.36l-20.54-.15c0-6.3,0-12.6.06-18.91,0-3.66-.44-3.17,3.29-3.18C343.24,248.56,349.27,248.57,355.29,248.56Z"/><path class="cls-4" d="M388.14,248.6q0,11.11,0,22.22h-4.75c0-4.84.78-9.64.57-14.49-.11-2.57,0-5.15.06-7.73h4.13Z"/><path class="cls-16" d="M383.38,270.82h4.75c0,4-.08,8.08.08,12.11.08,2.14-.64,3-2.74,2.69a19.41,19.41,0,0,0-2.29-.05C383.15,280.65,383,275.73,383.38,270.82Z"/><path class="cls-17" d="M384.49,217.74l-.06,2.66c-.19,2.07.17,4.16-.26,6.22-5.89.07-11.74,1.16-17.64.83-1.39-.08-2.85-.6-4.14-.31-2.92.65-5.84-.12-8.73.29-.21-1.5-.43-3-.65-4.49l-.75-8.53a.35.35,0,0,0-.05-.4l-.66-7.59c.12-3.48.31-6.89,2-10.12,3.92-7.46,12.53-9.92,19.48-5.35,5.08,3.34,10.22,6.58,15.53,9.55,1.2.92,2.13,2.16,3.48,2.9,4.9,2.69,9.16,6.33,13.86,9.3-5.57,0-11.14.05-16.71,0C384.19,212.73,384.19,212.71,384.49,217.74Zm.17-11.61-.45,0v6l.45,0Z"/><path class="cls-4" d="M431.56,219.69c0,8.84,0,17.67.09,26.5,0,1.19-.37,1.55-1.56,1.54-10.16,0-20.32,0-30.49-.07l.06-27.29c9,0,18.1,0,27.15,0A13,13,0,0,0,431.56,219.69Z"/><path class="cls-17" d="M424.41,198c0,2.83-1.33,5.17-2.59,7.56l-2.5,3-.95.45-17.55-5.43-12.19-3.73c-.37-.83-1.2-1.1-1.88-1.55-2.87-1.91-6-3.35-8.77-5.47.13-1.41,1.21-1.11,2.07-1.11,6.73,0,13.47,0,20.21,0,5.79,0,11.59-.16,17.37.07,2.45.1,4.6-1.3,7-.89,0,2.25,0,4.5,0,6.74Z"/><path class="cls-4" d="M444.86,217.44v30.28c-3.58,0-7.16,0-10.74,0-1.15,0-1.6-.31-1.59-1.54.05-9.05.05-18.1.07-27.15.64-.55,1-1.36,1.87-1.7Z"/><path class="cls-16" d="M418.37,209l.95-.45c3.35.2,6.72-.37,10.06.38a4.38,4.38,0,0,1,3.43,4.36,4.79,4.79,0,0,1-3.71,4.5,5.86,5.86,0,0,1-.84,0l-43.77,0c-.3-5-.3-5,4.71-5,5.57,0,11.14,0,16.71,0A15.31,15.31,0,0,0,418.37,209Z"/><path class="cls-4" d="M398.74,247.69l-8-.11c0-8.42.05-16.84,0-25.26,0-1.61.45-2.08,2-2,1.95.13,3.93,0,5.89,0C399,229.46,398.83,238.58,398.74,247.69Z"/><path class="cls-4" d="M384.17,226.62c.43-2.06.07-4.15.26-6.22,3.8-.07,3.81-.07,3.8,3.64q0,11.84-.07,23.65h-4q0-6.09-.07-12.18A51.87,51.87,0,0,0,384.17,226.62Z"/><path class="cls-4" d="M444.85,207.69q0,4.45,0,8.91l-10.11,0c1.09-2.94,1.61-6.09,3.12-8.88Z"/><path class="cls-4" d="M444.91,186.46q0,9.3,0,18.59l-6.13.08c.22-2.61,1.32-5,2.06-7.43,1.11-3.69,2.33-7.35,3.49-11Z"/><path class="cls-16" d="M398.74,247.69c.09-9.11.28-18.23-.09-27.34l1,0-.06,27.29Z"/><path class="cls-12" d="M438.74,205.13l6.13-.08c0,.88,0,1.76,0,2.64h-7A2.82,2.82,0,0,1,438.74,205.13Z"/><path class="cls-12" d="M434.75,216.57l10.11,0v.84l-10.39-.1C434.57,217.08,434.66,216.83,434.75,216.57Z"/><path class="cls-12" d="M384.12,247.7h4c0,.3,0,.61,0,.91h-4.06C384.09,248.3,384.11,248,384.12,247.7Z"/><path class="cls-17" d="M444.91,186.46l-.62.21c.2-.58.39-1.17.58-1.76C444.88,185.43,444.9,186,444.91,186.46Z"/><path class="cls-16" d="M483.78,227.08l0-19.4,14.3,0c0,6,0,12,.11,18,0,1.3-.58,1.48-1.66,1.47C492.3,227.09,488,227.1,483.78,227.08Z"/><path class="cls-12" d="M491,204.74a.8.8,0,0,0,1.08,0,8.86,8.86,0,0,0,3.59,0,4.07,4.07,0,0,0,2.45.41v2.5l-14.3,0c0-.91,0-1.82,0-2.73l2.05-.21c.37.61.74.22,1.11,0A10.55,10.55,0,0,0,491,204.74Z"/><path class="cls-4" d="M464.05,183.58l13.45,0a10.45,10.45,0,0,1,0,4.88c-2.82-.59-2.82-.59-3.74,2.14-1.28,3.82-2.47,7.68-3.88,11.45-.62,1.66-.18,2.4,1.4,2.75-1.94.39-3.91.11-5.86.22-1.1.05-1.46-.41-1.45-1.48C464,196.86,464,190.22,464.05,183.58Z"/><path class="cls-4" d="M464,218.07c0-2.86,0-5.71,0-8.57-.05-1.33.31-1.83,1.72-1.79,4,.09,7.94,0,11.91.06a174.57,174.57,0,0,1-.12,19.41l-3.31-.1,2-2.21h-3.53a8.08,8.08,0,0,0,2.42-4.66c.24-1.46,0-2.16-1.73-2.08-3.06.14-6.13,0-9.2,0Z"/><path class="cls-4" d="M464.05,246.15q0-8.11,0-16.24l13.44,0a22.05,22.05,0,0,1,0,7.16c-1.52-2.16-3.52-3.6-6.2-2.71-2.53.83-5.16,2.91-5.25,6.06,0,1,.2,2.2-.3,2.85C465.07,244.17,466.44,246.33,464.05,246.15Z"/><path class="cls-9" d="M464.05,246.15c2.39.18,1-2,1.73-2.91.5-.65.27-1.88.3-2.85.09-3.15,2.72-5.23,5.25-6.06,2.68-.89,4.68.55,6.2,2.71.53,3.6.2,7.21.2,10.81l-.51-.1-13.15-.07C464.07,247.17,464.06,246.66,464.05,246.15Zm8.51,0c.79-.59,2.39,1.14,3-1.51a18.42,18.42,0,0,0,.65-5,3.67,3.67,0,0,0-2.8-3.33c-1.52-.49-2.67.38-3.66,1.48a4,4,0,0,0-1,2.26,8.58,8.58,0,0,0,.7,4.5C470.22,246.5,471.2,246.09,472.56,246.18Z"/><path class="cls-9" d="M471.29,204.76c-1.58-.35-2-1.09-1.4-2.75,1.41-3.77,2.6-7.63,3.88-11.45.92-2.73.92-2.73,3.74-2.14.61.92-.15,1.84,0,2.77-2,4.44-3.2,9.2-4.82,13.79Z"/><path class="cls-8" d="M477.51,229.88l-13.44,0a1.73,1.73,0,0,0-.11-.32l.15-2.57,10.06.06,3.31.1A3.75,3.75,0,0,1,477.51,229.88Z"/><path class="cls-9" d="M485.88,204.74l-2.05.21q0-8.58,0-17.15c1.59-.25,2.13.33,2.09,2C485.79,194.79,485.88,199.77,485.88,204.74Z"/><path class="cls-4" d="M472.69,205c1.62-4.59,2.78-9.35,4.82-13.79q0,6.88,0,13.79Z"/><path class="cls-4" d="M464.1,143.65c0-11.06-.06-22.11-.15-33.16,0-1.42.78-1.35,1.74-1.35,5.46,0,10.92,0,16.38,0,.08,1.54.16,3.07.25,4.6l-.16.4c-1.9-.29-2.36.61-2.2,2.37.22,2.37.3,4.76.32,7.13,0,6.67,0,13.33,0,20l-6.15,0c-.26-1.39.54-2.55.85-3.81,1.52-6.2,3.1-12.38,4.62-18.57.15-.61,1.28-1.53,0-1.85-1.09-.27-2.74-1.58-3.41.71-.64-.27-1.3-.52-1.94-.81-.85-.38-1.38-.28-1.69.75-2.12,7.11-5.33,13.81-7.84,20.77-.67,1.84.5,1.78,1.41,2.22s1.75.52,2.22-.85c1.83-5.37,3.77-10.7,5.68-16,1.25.55.4,1.49.26,2.12-.95,4.09-1.93,8.17-3.09,12.2-.49,1.69-.35,2.75,1.5,3.15Z"/><path class="cls-16" d="M491.32,138.6c-1.25-.32-.78-1.34-.78-2.08,0-9.22-.08-18.44,0-27.66,0-1.89-.54-2.45-2.36-2.31-2,.15-4.05,0-6.08,0,0-3,0-6.08.1-9.12,0-1.64-1.46-2.45-1.94-3.8.48-.71,1.22-.56,1.9-.56l16.09,0q-.06,6-.11,11.94c-.74,0-.66.51-.71,1-.39,4.06-.83,8.12-1.18,12.18C495.65,125.3,493.24,131.89,491.32,138.6Z"/><path class="cls-9" d="M480.31,143.61c0-6.67,0-13.33,0-20,0-2.37-.1-4.76-.32-7.13-.16-1.76.3-2.66,2.2-2.37h.76a3.87,3.87,0,0,0,.83.06c2.12-.39,2.66.45,2.63,2.58-.14,8.83-.07,17.66-.08,26.49-1.26.28-2.6-.29-3.81.39Z"/><path class="cls-11" d="M476.22,120.11c.67-2.29,2.32-1,3.41-.71,1.28.32.15,1.24,0,1.85-1.52,6.19-3.1,12.37-4.62,18.57-.31,1.26-1.11,2.42-.85,3.81h-1.43c-1.85-.4-2-1.46-1.5-3.15,1.16-4,2.14-8.11,3.09-12.2.14-.63,1-1.57-.26-2.12l0,0c1,.26.94-.61,1.09-1.11.38-1.32.67-2.67,1-4Z"/><path class="cls-16" d="M486.3,143.24c0-8.83-.06-17.66.08-26.49,0-2.13-.51-3-2.63-2.58a3.87,3.87,0,0,1-.83-.06l-.6-.4c-.09-1.53-.17-3.06-.25-4.6,5.51-.07,5.51-.07,5.51,5.36q0,14.57,0,29.13l-1.23,0A.29.29,0,0,0,486.3,143.24Z"/><path class="cls-11" d="M491.32,138.6c1.92-6.71,4.33-13.3,4.95-20.33.35-4.06.79-8.12,1.18-12.18.05-.51,0-1,.71-1-.36,2.18.31,4.29.37,6.44.1,4.33-.71,8.62-.41,12.95-.51.55-.32,1.28-.51,1.92l-.64,0c.21-2.11.41-4.23.62-6.35a8.83,8.83,0,0,0-.15-3.79c-.16,1.27-.31,2.54-.47,3.81-1,7.69-2.76,15.22-4.51,22.76a.66.66,0,0,1-.3-.07v-2.87c-.77.77-.59,1.75-1,2.48a.76.76,0,0,0-.26,0C490.68,141.09,491.24,139.87,491.32,138.6Zm1.48-.93c.26-.45.56-.89,0-1.34C492.59,136.79,492.36,137.23,492.8,137.67Zm-.36,1.87a4.84,4.84,0,0,0,.18-.93c0-.12-.05-.43-.3-.22a.79.79,0,0,0-.18.53C492.14,139.06,492.27,139.21,492.44,139.54Z"/><path class="cls-16" d="M492.46,142.83c1.75-7.54,3.51-15.07,4.51-22.76l.62,0c-.21,2.12-.41,4.24-.62,6.35-.27,1.44-.51,2.89-.81,4.33q-1.34,6.47-2.69,12.92C492.85,143.72,492.44,143.54,492.46,142.83Z"/><path class="cls-7" d="M493.47,143.65q1.35-6.47,2.69-12.92c.3-1.44.54-2.89.81-4.33l.64,0a111,111,0,0,1-3,14.9,6.63,6.63,0,0,0-.33,2.46C494,144.12,493.7,144.07,493.47,143.65Z"/><path class="cls-7" d="M486.3,143.24a.29.29,0,0,1,.06.31,3.57,3.57,0,0,1-3.87.08C483.7,143,485,143.52,486.3,143.24Z"/><path class="cls-7" d="M487.55,143.77l.87,0A.51.51,0,0,1,487.55,143.77Z"/><path class="cls-7" d="M490.09,143.76l.44,0C490.4,143.93,490.25,143.94,490.09,143.76Z"/><path class="cls-11" d="M492,143.22c-.08-.22-.09-.41.22-.44Z"/><path class="cls-9" d="M535.18,87.61c1.06.24,2.23-.25,3.24.38,0,.86-.86,1.12-1.16,1.74a3.35,3.35,0,0,1-2.19.52c-4.48,0-9,0-13.45,0a3.55,3.55,0,0,1-2.35-.69l-1.66-1.92h3.73Z"/><path class="cls-4" d="M305.58,248.49c3.49,3.22,7,6.42,10.45,9.67,3.07,2.88,5.11,2.89,8.06-.09.88-.89,1.71-1.83,2.56-2.75l5.67-6.8c.74.31.7,1,.7,1.59l-.06,20.7c-8.07,0-16.14-.06-24.21.07-2.75,0-5.28-.18-7.4-2.12-.59-1.12-.3-2.34-.31-3.51,0-4.78.06-9.55-.05-14.33-.05-1.78.33-2.65,2.28-2.36A12.8,12.8,0,0,0,305.58,248.49Z"/><path class="cls-11" d="M332.32,248.52l-5.67,6.8c-5.7-5.16-11.64-10.06-17-15.63l1.64-2.62c8.48,0,17,.07,25.45.07a12.93,12.93,0,0,1,3.92.47L334,246.43A7,7,0,0,0,332.32,248.52Z"/><path class="cls-4" d="M334,246.43l6.68-8.82c1.93-1.09,2.81-3.12,4.21-4.68l.3-.42,0,0,7.84-9.59c.22,1.49.44,3,.65,4.49a40.83,40.83,0,0,0,.76,8.89l.15,3.39.13.65c.18,2.44.37,4.89.55,7.33l-19.47,0C334.88,247.71,333.85,247.9,334,246.43Z"/><path class="cls-4" d="M301.1,244.24a17.33,17.33,0,0,1,3.63,3.42c-.14,0-.28,0-.41,0C300.71,247.6,300.94,248.55,301.1,244.24Z"/><path class="cls-14" d="M514.54,242.64c-.39-.14-.4-.45-.34-.78,0-.05.1-.08.16-.12,0,.31.1.61.16.91Z"/><path class="cls-4" d="M444.85,270.85l-12.07,0c-.52-2.64-.17-5.3-.22-7.94-.06-4.06.07-8.13-.05-12.18-.06-1.8.56-2.27,2.27-2.21,3.36.12,6.72,0,10.08,0Z"/><path class="cls-12" d="M349.73,63.58l-14.62,0c.25-.9,1.09-.69,1.71-.89h10.46C348.12,62.93,349.14,62.66,349.73,63.58Z"/><path class="cls-4" d="M347.28,62.71H336.82A10.78,10.78,0,0,1,347.28,62.71Z"/><path class="cls-17" d="M333.09,204.7a3.33,3.33,0,0,0,1.14-1.85l6.12-10.7c.65,1.18,1.77,1.2,2.92,1.21,3.64,0,7.29,0,10.93.08a17.56,17.56,0,0,0-3.49,12.14c-.16.67-.34,1.35-.49,2q-1.91,8.67-3.82,17.36H319.24c1.69-2.41,3.7-4.6,5.11-7.21l.62-1.09A111.5,111.5,0,0,0,333.09,204.7Z"/><path class="cls-4" d="M340.35,192.15l-6.12,10.7c-.65-2.11-.22-4.28-.28-6.42-.09-2.79,0-5.58,0-8.37,0-1.13.28-1.66,1.52-1.61,2.85.1,5.71.09,8.57.13A25.14,25.14,0,0,1,340.35,192.15Z"/><path class="cls-6" d="M350.71,205.58a17.56,17.56,0,0,1,3.49-12.14c3.18-3.6,7-5.94,12.14-6.14-.55-1.61-2.16-2.25-2.3-3.93,3.77,4.5,9.45,6,13.94,9.42,2.74,2.12,5.9,3.56,8.77,5.47.68.45,1.51.72,1.88,1.55l-.06.69c-5.31-3-10.45-6.21-15.53-9.55-7-4.57-15.56-2.11-19.48,5.35-1.7,3.23-1.89,6.64-2,10.12Z"/><path class="cls-7" d="M419,149.81a9.75,9.75,0,0,0-4.42.48l-1.14,0a.75.75,0,0,0-.48-.79,4,4,0,0,0-3.35-1.27q-21.1.06-42.22,0c-.81,0-1.69.27-2.42-.37l1.46-1.37.79-.69a3.53,3.53,0,0,0,1.84-1.1c4.6-3.26,9.59-6,13.6-10.05a5.37,5.37,0,0,1,3.28-1.63c.58,2.12,0,4.31.41,6.45a5.13,5.13,0,0,0,7.39,4c1.8-.76,3.57-1.59,5.35-2.39a3.63,3.63,0,0,1,.46.41c4.64,5.38,10.33,7.26,16.65,2.94,4.17-2.86,8.54-5.46,13.87-5.47.57.41,1.13.83,1.7,1.23,3.89,2.72,8.06,5.05,11.81,8l-8.94,0c-.25-.77-.84-.53-1.38-.48-3.11.31-6.22.58-9.33.93C422.22,148.9,420.43,148.66,419,149.81Z"/><path class="cls-14" d="M364.94,147.9c.73.64,1.61.37,2.42.37q21.11,0,42.22,0a4,4,0,0,1,3.35,1.27c-1.13.52-2.26,0-3.39,0-14.63.06-29.26,0-43.89,0-.81,0-1.7.3-2.4-.41A2.66,2.66,0,0,1,364.94,147.9Z"/><path class="cls-6" d="M378.59,162.4l-.93-.24a9.43,9.43,0,0,0,1.2-9.14C381.13,155.08,380.91,159,378.59,162.4Z"/><path class="cls-3" d="M359.19,150.69l1-.15c-.74,2.23-3.13,2.37-4.65,3.64C356.31,152.52,358.06,151.92,359.19,150.69Z"/><path class="cls-4" d="M463,186.32c.4,5.79.06,11.59.18,17.38,0,1.25-.75,1.27-1.65,1.27-3.36,0-6.71,0-10.06,0q0-9.31,0-18.64a.62.62,0,0,0,.34-.13Z"/><path class="cls-4" d="M460.85,247.65l-9.41.07q0-8.91,0-17.82l11.64,0q0,7.53.07,15.06a1.24,1.24,0,0,1-.39,1.13C461.62,246,460.48,245.9,460.85,247.65Z"/><path class="cls-4" d="M451.44,207.73c3.15,0,6.31.13,9.45,0,1.94-.1,2.45.6,2.29,2.39a28.38,28.38,0,0,0,0,4.61c.11,1.44-.33,2-1.85,1.93-3.29-.1-6.58,0-9.87,0Z"/><path class="cls-4" d="M451.44,217.44c3.22,0,6.44,0,9.66,0,.7,0,1.59-.36,2,.61l-.12.1a13.12,13.12,0,0,1-2.08,0c-1.86-.27-2.09.63-1.83,2.18a10,10,0,0,0,2.3,4.53l-3.2.17,1.8,2-8.57.06Z"/><path class="cls-8" d="M451.43,180.83h11.63a7.12,7.12,0,0,1,0,2.76l-11.64,0Z"/><path class="cls-8" d="M451.43,227.13l8.57-.06,3-.06c.07.87.13,1.73.19,2.59a3.05,3.05,0,0,0-.13.32l-11.64,0Z"/><path class="cls-4" d="M451.43,183.58l11.64,0c0,.69-.05,1.38-.07,2.07l-11.2.09a.6.6,0,0,0-.36-.12Z"/><path class="cls-12" d="M451.44,185.64a.6.6,0,0,1,.36.12c0,.16,0,.32,0,.48a.62.62,0,0,1-.34.13C451.44,186.13,451.44,185.88,451.44,185.64Z"/><path class="cls-2" d="M451.76,270.92l-.34.35v-.43A.68.68,0,0,1,451.76,270.92Z"/><path class="cls-14" d="M424.41,198l.25-.41Z"/><path class="cls-16" d="M443.55,148.23c-3.75-2.93-7.92-5.26-11.81-8-.57-.4-1.13-.82-1.7-1.23-.72-2-2.88-3-3.68-5,5.15.17,10.33-.65,15.43.79a15.33,15.33,0,0,1,10.51,20c-.16.47-.24,1-.86,1-1-2.56-2.32-4.9-5.12-5.93A6.83,6.83,0,0,0,443.55,148.23Z"/><path class="cls-14" d="M443.55,148.23a6.83,6.83,0,0,1,2.77,1.71c-.55.64-1.3.42-2,.42-6.17,0-12.35,0-18.53,0a5,5,0,0,1-2.44-.49c.63-.43,1.35-.23,2-.35,3.05-.55,6.22-.26,9.21-1.27Z"/><path class="cls-3" d="M434.61,148.27c-3,1-6.16.72-9.21,1.27-.68.12-1.4-.08-2,.35a6.79,6.79,0,0,0-3.22.37l-1.18-.45c1.46-1.15,3.25-.91,4.93-1.09,3.11-.35,6.22-.62,9.33-.93C433.77,147.74,434.36,147.5,434.61,148.27Z"/><path class="cls-3" d="M426.36,134c.8,2,3,3,3.68,5-5.33,0-9.7,2.61-13.87,5.47-6.32,4.32-12,2.44-16.65-2.94a3.63,3.63,0,0,0-.46-.41l-1.86-3a39.38,39.38,0,0,1-2.58-14.37c-.05-3.07-.14-6.15-.16-9.23,0-4.94-1.3-9.11-5.84-12a26.37,26.37,0,0,1-7.38-6.4c-.65-.89-1.05-.45-1.59.15-1.5,1.66-2.9,3.44-5,4.4-.3-2.83,1.08-5.16,2.28-7.54l.57-.84c.57-.5,1.12-1,1.72-1.51,4.76-3.69,9.87-5.46,15.72-2.71a40.88,40.88,0,0,1,3.73,2.28c.2.38.39.76.85.88l1.06,1.09.74.81c1.89,3.37,4.38,6.5,4.9,10.46a8.27,8.27,0,0,0,4.42,6.44c5.23,3,9.1,7.11,10.45,13.21a1,1,0,0,0,.3,1,19.13,19.13,0,0,0,3.07,7.38A3.5,3.5,0,0,0,426.36,134Z"/><path class="cls-4" d="M421.09,123.28c-1.35-6.1-5.22-10.2-10.45-13.21a8.27,8.27,0,0,1-4.42-6.44c-.52-4-3-7.09-4.9-10.46l18.52,0c.52,1,1,1.07,1.51,0,3,0,6,0,9,0,1,0,1.29.27,1.28,1.29q-.06,13.64,0,27.27c0,1.35-.54,1.64-1.75,1.62C427,123.22,424,123.27,421.09,123.28Z"/><path class="cls-4" d="M455.12,143.71c-.85-1.57-1.7-3.13-2.54-4.7,0-4.27.14-8.55.05-12.83,0-1.61.47-2.05,2-2,2.38.13,4.77.07,7.16,0,1,0,1.36.31,1.35,1.33-.08,6-.1,12.05-.15,18.08Z"/><path class="cls-4" d="M463.14,116.3c0,1.89,0,3.78,0,5.67,0,1-.36,1.4-1.35,1.39-2.66,0-5.33,0-8,0-1,0-1.17-.44-1.16-1.28,0-3.85,0-7.71,0-11.56,0-1.15.51-1.42,1.53-1.4,2.52.05,5.05.06,7.57,0,1.15,0,1.43.45,1.4,1.49C463.11,112.51,463.15,114.41,463.14,116.3Z"/><path class="cls-4" d="M450.06,135.62c-1.45.21-2.13-1.13-3.22-1.65a23.34,23.34,0,0,0-11.69-2.41,24.39,24.39,0,0,1-2.69-.15c0-1.9.06-3.8,0-5.69,0-1,.25-1.51,1.4-1.5q7.36.07,14.74,0c1.15,0,1.41.46,1.41,1.5C450,129,450,132.32,450.06,135.62Z"/><path class="cls-4" d="M424.46,131.65a19.13,19.13,0,0,1-3.07-7.38c2.79,0,5.58.09,8.35-.06,1.67-.1,2,.55,1.91,2-.11,1.73,0,3.48,0,5.22Z"/><path class="cls-4" d="M455.16,154.16c.83-2.57.38-5.22.47-7.83l7.43,0c0,2.15,0,4.3.09,6.45,0,1-.22,1.64-1.36,1.58C459.58,154.28,457.36,154.65,455.16,154.16Z"/><path class="cls-8" d="M463.06,146.35l-7.43,0a5.39,5.39,0,0,1-.51-2.62l7.89-.07A5.65,5.65,0,0,1,463.06,146.35Z"/><path class="cls-6" d="M421.35,93.12c-.49,1.09-1,1.06-1.51,0a.65.65,0,0,0,0-.89c0-.56.1-1.11.1-1.67,0-3.29.31-3.67,3.47-4.66.31-.1.65-.42.92,0a.83.83,0,0,1-.17,1.13.87.87,0,0,1-.37.19c-3,.63-2.75,2.79-2.42,5A.62.62,0,0,0,421.35,93.12Z"/><path class="cls-7" d="M490.93,142.39a.76.76,0,0,1,.26,0c0,.27,0,.53-.28.64-.05,0-.25-.15-.24-.17A4,4,0,0,1,490.93,142.39Z"/><path class="cls-4" d="M398.67,90.39a40.88,40.88,0,0,0-3.73-2.28c-5.85-2.75-11-1-15.72,2.71-.6.47-1.15,1-1.72,1.51-2.81,0-5.61-.09-8.41,0-1.27,0-1.88-.22-1.87-1.71q.11-12.61,0-25.24c0-1.47.54-1.73,1.83-1.73,9.33,0,18.65,0,28,0,.93,0,1.78-.14,1.77,1.32C398.72,73.43,398.71,81.91,398.67,90.39Zm-14.8-20.75c-1-.8-1.89-1.47-2.74-2.18-2.19-1.83-2.19-1.84-3.95.41-2,2.61-2,2.61.6,4.76a9.4,9.4,0,0,1,1,.79c.69.72,1.19.68,1.85-.14A18.88,18.88,0,0,1,383.87,69.64Z"/><path class="cls-3" d="M385.91,133.06a5.37,5.37,0,0,0-3.28,1.63c-4,4.08-9,6.79-13.6,10,.39-1.11.76-2.23,1.17-3.34,2.07-5.58,3.06-11.25,1.56-17.15l-.12-.91c-1.52-6.3,0-12.07,3.05-17.57a5.78,5.78,0,0,1,1.55-.52c.91,0,1.41.53,1.44,1.44s-.45,1.73-1.31,1.53c-2.09-.47-1.56.83-1.49,1.91.09,1.33.17,2.65.23,4,.32,7.13,4.9,11,12.06,10.34,1.66-.15,3.32-.73,5.26-.43-.31.36-.41.55-.56.63-1.07.58-2.81-.14-3.32,1.22-.41,1.11-.12,2.48-.13,3.74,0,.77,0,1.54,0,2.31C387.6,132.3,386.5,132.1,385.91,133.06Z"/><path class="cls-4" d="M374.69,105.76c-3.05,5.5-4.57,11.27-3.05,17.57-4.47.09-4.47.09-4.47-4.31,0-7.93.05-15.85-.05-23.77,0-1.79.53-2.27,2.24-2.17,2.51.16,5,.07,7.56.09-1.19,2.38-2.57,4.71-2.27,7.54C374.66,102.4,374.68,104.08,374.69,105.76Z"/><path class="cls-4" d="M371.76,124.24c1.5,5.9.51,11.57-1.56,17.15-.41,1.11-.78,2.23-1.17,3.34a3.48,3.48,0,0,1-1.84,1.11c0-6.45.06-12.89-.07-19.33,0-1.88.49-2.56,2.33-2.28A16.18,16.18,0,0,0,371.76,124.24Z"/><path class="cls-4" d="M333.09,204.7a111.5,111.5,0,0,1-8.12,12c-7.29,0-14.57-.11-21.86-.06-1.62,0-2.14-.37-2.12-2.07q.12-12.93,0-25.87c0-1.7.39-2.27,2.18-2.26q13.88.14,27.75,0c1.62,0,2.16.39,2.14,2.08C333,193.91,333.07,199.3,333.09,204.7Z"/><path class="cls-4" d="M324.35,217.77c-1.41,2.61-3.42,4.8-5.11,7.21a91,91,0,0,0-7.91,12.09l-1.64,2.62a87,87,0,0,1-8.7-3.92c0-5.47,0-10.93,0-16.4,0-1.08,0-1.89,1.49-1.87,7,.06,14,0,21,.05A2.89,2.89,0,0,1,324.35,217.77Z"/><path class="cls-14" d="M463.2,229.6c-.06-.86-.12-1.72-.19-2.59a67,67,0,0,0,0-8.85l.12-.1H464l.11.09a62.38,62.38,0,0,0,0,8.86l-.15,2.57Z"/><path class="cls-16" d="M451.79,186.24c0-.16,0-.32,0-.48l11.2-.09c.37.23.3.44,0,.65Z"/><path class="cls-2" d="M489.64,273.74a3.31,3.31,0,0,1,3.39,3.44,3.27,3.27,0,0,1-3.3,3.34,3.21,3.21,0,0,1-3.54-3.47C486.22,274.94,487.45,273.75,489.64,273.74Z"/><path class="cls-8" d="M460.85,247.65c-.37-1.75.77-1.63,1.9-1.54C464,249,461.59,247.27,460.85,247.65Z"/><path class="cls-13" d="M421.39,76.8c0,.69-3.24,2.36-4.56,2.37-.85,0-2.9-3.37-2.43-4.85.66-2.14,3.14-1.46,4.74-2.2C419.85,71.79,421.44,75.12,421.39,76.8Z"/><path class="cls-12" d="M419.84,92.25a.65.65,0,0,1,0,.89l-18.52,0-.74-.81Z"/><path class="cls-7" d="M354.42,236.32a40.83,40.83,0,0,1-.76-8.89c2.89-.41,5.81.36,8.73-.29,1.29-.29,2.75.23,4.14.31,5.9.33,11.75-.76,17.64-.83a51.87,51.87,0,0,1-.12,8.9c-9,0-18.09,0-27.13-.07A4.44,4.44,0,0,0,354.42,236.32Z"/><path class="cls-7" d="M356.53,258.27a1.48,1.48,0,0,1-.16-.27s.06-.08.09-.13a1.39,1.39,0,0,1,.1.26S356.54,258.22,356.53,258.27Z"/><path class="cls-7" d="M354.7,240.36l-.13-.65Z"/><path class="cls-3" d="M388.57,200.5l.06-.69,12.19,3.73L418.37,209a15.31,15.31,0,0,1-12.46,3.73c-4.7-3-9-6.61-13.86-9.3C390.7,202.66,389.77,201.42,388.57,200.5Z"/><path class="cls-3" d="M350.71,205.58l.84.84.66,7.59c0,.05-.12.11-.11.13s.11.18.16.27l.75,8.53-7.84,9.59c-.08-2.6,1-5,1.23-7.56q1.91-8.68,3.82-17.36C350.37,206.93,350.55,206.25,350.71,205.58Z"/><path class="cls-3" d="M384.66,206.13v6l-.45,0v-6Z"/><path class="cls-6" d="M352.26,214.41c-.05-.09-.12-.18-.16-.27s.07-.08.11-.13A.35.35,0,0,1,352.26,214.41Z"/><path class="cls-9" d="M491,204.74a10.55,10.55,0,0,1-4,0c0-5,.11-10.08,0-15.11,0-1.78.76-1.84,2.12-1.87s1.93.35,1.9,1.86C490.92,194.66,491,199.7,491,204.74Z"/><path class="cls-9" d="M495.66,204.75a8.86,8.86,0,0,1-3.59,0c0-5,.08-10.07,0-15.1,0-1.49.44-1.88,1.89-1.89s1.69.64,1.68,1.89C495.61,194.68,495.65,199.72,495.66,204.75Z"/><path class="cls-9" d="M464.11,227a62.38,62.38,0,0,1,0-8.86c3.07,0,6.14.11,9.2,0,1.74-.08,2,.62,1.73,2.08a8.08,8.08,0,0,1-2.42,4.66h3.53l-2,2.21Z"/><path class="cls-4" d="M472.56,246.18c-1.36-.09-2.34.32-3.14-1.56a8.58,8.58,0,0,1-.7-4.5,4,4,0,0,1,1-2.26c1-1.1,2.14-2,3.66-1.48a3.67,3.67,0,0,1,2.8,3.33,18.42,18.42,0,0,1-.65,5C475,247.32,473.35,245.59,472.56,246.18Z"/><path class="cls-9" d="M476.22,120.11l-.06.94c-1.18,1.51-1.42,3.4-2.08,5.12l0,0c-1.91,5.34-3.85,10.67-5.68,16-.47,1.37-1.18,1.35-2.22.85s-2.08-.38-1.41-2.22c2.51-7,5.72-13.66,7.84-20.77.31-1,.84-1.13,1.69-.75C474.92,119.59,475.58,119.84,476.22,120.11Z"/><path class="cls-12" d="M482.32,113.71l.6.4h-.76C482.21,114,482.26,113.84,482.32,113.71Z"/><path class="cls-13" d="M474.08,126.17c.66-1.72.9-3.61,2.08-5.12-.32,1.34-.61,2.69-1,4C475,125.56,475.08,126.43,474.08,126.17Z"/><path class="cls-14" d="M497.59,120.05l-.62,0c.16-1.27.31-2.54.47-3.81A8.83,8.83,0,0,1,497.59,120.05Z"/><path class="cls-12" d="M492.8,137.67c-.44-.44-.21-.88,0-1.34C493.36,136.78,493.06,137.22,492.8,137.67Z"/><path class="cls-12" d="M492.44,139.54c-.17-.33-.3-.48-.3-.62a.79.79,0,0,1,.18-.53c.25-.21.31.1.3.22A4.84,4.84,0,0,1,492.44,139.54Z"/><path class="cls-11" d="M535.18,87.61l-13.84,0c-1.12-1.92-2.38-3.75-2.56-6.09-.11-1.41.24-2,1.79-2,5.18.09,10.36.08,15.53,0,1.53,0,1.92.49,1.76,2A11.83,11.83,0,0,1,535.18,87.61Z"/><path class="cls-7" d="M346.4,225c-.24,2.54-1.31,5-1.23,7.56l0,0-.3.42c-1.4,1.56-2.28,3.59-4.21,4.68a12.93,12.93,0,0,0-3.92-.47c-8.48,0-17,0-25.45-.07A91,91,0,0,1,319.24,225Z"/><path class="cls-3" d="M344.91,232.93l.3-.42Z"/><path class="cls-16" d="M385.91,133.06c.59-1,1.69-.76,2.53-1.15a19.79,19.79,0,0,1,0,2.31c-.45,5.3,2.78,7.11,7.49,4.71.43-.22.82-.51,1.23-.77l1.86,3c-1.78.8-3.55,1.63-5.35,2.39a5.13,5.13,0,0,1-7.39-4C385.93,137.37,386.49,135.18,385.91,133.06Z"/><path class="cls-9" d="M463,218.16a67,67,0,0,1,0,8.85l-3,.06-1.8-2,3.2-.17a10,10,0,0,1-2.3-4.53c-.26-1.55,0-2.45,1.83-2.18A13.12,13.12,0,0,0,463,218.16Z"/><path class="cls-10" d="M397.2,138.16c-.41.26-.8.55-1.23.77-4.71,2.4-7.94.59-7.49-4.71a19.79,19.79,0,0,0,0-2.31c0-.77,0-1.54,0-2.31,0-1.26-.28-2.63.13-3.74.51-1.36,2.25-.64,3.32-1.22.15-.08.25-.27.56-.63-1.94-.3-3.6.28-5.26.43-7.16.66-11.74-3.21-12.06-10.34-.06-1.33-.14-2.65-.23-4-.07-1.08-.6-2.38,1.49-1.91.86.2,1.33-.65,1.31-1.53s-.53-1.49-1.44-1.44a5.78,5.78,0,0,0-1.55.52c0-1.68,0-3.36,0-5.05,2.1-1,3.5-2.74,5-4.4.54-.6.94-1,1.59-.15a26.37,26.37,0,0,0,7.38,6.4c4.54,2.89,5.81,7.06,5.84,12,0,3.08.11,6.16.16,9.23A39.38,39.38,0,0,0,397.2,138.16Zm-11.69-30.31a1.51,1.51,0,0,0,1.48-1.67,1.39,1.39,0,0,0-1.41-1.5,1.42,1.42,0,0,0-1.59,1.54A1.54,1.54,0,0,0,385.51,107.85Zm-5,3.24c-1.51-2-1.5-2-.1-4.17.2-.31.63-.64.1-1-1.75,1.46-2.73,3-2.38,3.78A2.42,2.42,0,0,0,380.52,111.09Zm-2.25,3.81c1.26,2.37,3,2.4,4.51-.14C381.1,115.93,379.69,116.15,378.27,114.9Z"/><path class="cls-14" d="M383.87,69.64a18.88,18.88,0,0,0-3.26,3.64c-.66.82-1.16.86-1.85.14a9.4,9.4,0,0,0-1-.79c-2.64-2.15-2.64-2.15-.6-4.76,1.76-2.25,1.76-2.24,3.95-.41C382,68.17,382.87,68.84,383.87,69.64Z"/><path class="cls-3" d="M385.51,107.85a1.54,1.54,0,0,1-1.52-1.63,1.42,1.42,0,0,1,1.59-1.54,1.39,1.39,0,0,1,1.41,1.5A1.51,1.51,0,0,1,385.51,107.85Z"/><path class="cls-6" d="M380.52,111.09a2.42,2.42,0,0,1-2.38-1.42c-.35-.83.63-2.32,2.38-3.78.53.39.1.72-.1,1C379,109.11,379,109.11,380.52,111.09Z"/><path class="cls-6" d="M378.27,114.9c1.42,1.25,2.83,1,4.51-.14C381.29,117.3,379.53,117.27,378.27,114.9Z"/><path class="cls-1" d="M33.2,140.88c14.23-2.7,33.51,19.56,32.87,33.23-.85,18.18-16.79,33.9-34,34C14.48,208.22-.33,192.38,0,174.55.37,154.89,14.39,140.67,33.2,140.88Z"/><path class="cls-10" d="M61.39,211.9c.12-3,2-4.68,5-4.67,2.6,0,4.32,1.82,4.47,4.68Z"/><path class="cls-13" d="M61.39,212.58h9.43c-.54,2.88-2.26,4.71-4.59,4.43S61.56,215.92,61.39,212.58Z"/></g></g></svg>